#define saturation_width 22
#define saturation_height 22
static char saturation_bits[] = {
   0x00, 0x00, 0xc0, 0x00, 0x00, 0xc0, 0x00, 0x00, 0xc0, 0x00, 0x00, 0xc0,
   0xa8, 0xea, 0xdf, 0x00, 0xb4, 0xde, 0xa0, 0xea, 0xdf, 0x00, 0xb4, 0xde,
   0xa8, 0xea, 0xdf, 0x00, 0xb4, 0xde, 0xa0, 0xea, 0xdf, 0x00, 0xb4, 0xde,
   0xa8, 0xea, 0xdf, 0x00, 0xb4, 0xde, 0xa0, 0xea, 0xdf, 0x00, 0xb4, 0xde,
   0xa8, 0xea, 0xdf, 0x00, 0x00, 0xc0, 0x00, 0x00, 0xc0, 0x00, 0x00, 0xc0,
   0x00, 0x00, 0xc0, 0x00, 0x00, 0xc0};
