/*********************************************************************
*  (c) Copyright 1993, 1994, 1995 Sun Microsystems, Inc.
**********************************************************************/
#define cdelogo_width 237
#define cdelogo_height 237
static char cdelogo_bits[] = {
 0x00,0x00,0x00,0x00,0x00,0x00,0x00,0x00,0x00,0x00,0x00,0x00,0x00,0x00,0x00,
 0x00,0x00,0x00,0x00,0x00,0x00,0x00,0x00,0x00,0x00,0x00,0x00,0x00,0x00,0xe0,
 0x00,0x00,0x00,0x00,0x00,0x00,0x00,0x00,0x00,0x00,0x00,0x00,0x00,0x00,0x00,
 0x00,0x00,0x00,0x00,0x00,0x00,0x00,0x00,0x00,0x00,0x00,0x00,0x00,0x00,0xe0,
 0x00,0x00,0x00,0x00,0x00,0x00,0x02,0x00,0x00,0x00,0x00,0x00,0x00,0x00,0x00,
 0x00,0x00,0x00,0x00,0x00,0x00,0x00,0x00,0x00,0x00,0x00,0x00,0x00,0x00,0xe0,
 0x00,0x00,0x00,0x00,0x00,0x00,0x04,0x00,0x00,0x00,0x00,0x00,0x00,0x00,0x00,
 0x00,0x00,0x00,0x00,0x00,0x00,0x00,0x00,0x00,0x00,0x00,0x00,0x00,0x00,0xe0,
 0x00,0x10,0x00,0x40,0x10,0x00,0x02,0x01,0x08,0x00,0x00,0x00,0x00,0x10,0x04,
 0x80,0x00,0x08,0x00,0x00,0x01,0x00,0x00,0x00,0x00,0x02,0x20,0x00,0x00,0xf5,
 0xa0,0x42,0x55,0x15,0x45,0x55,0x22,0x54,0xa1,0xaa,0xaa,0xaa,0xaa,0x82,0x50,
 0x15,0x55,0xa1,0xaa,0x2a,0xa8,0xaa,0xaa,0xaa,0xaa,0x50,0x85,0xaa,0x2a,0xf5,
 0x10,0x12,0x02,0x20,0x10,0x82,0x04,0x01,0x4a,0x40,0x00,0x00,0x01,0x48,0x24,
 0x20,0x00,0x12,0x00,0x80,0x42,0x44,0x00,0x11,0x00,0x0a,0x28,0x00,0x81,0xea,
 0x80,0xa4,0x50,0x89,0x84,0x28,0x42,0xaa,0x00,0x15,0x55,0x55,0x54,0x25,0x81,
 0x8a,0x52,0x41,0x55,0x55,0x11,0x09,0x55,0x84,0xaa,0x40,0x45,0x55,0x54,0xf5,
 0x20,0x00,0x04,0x25,0x22,0x84,0x46,0x00,0x25,0x08,0x00,0x00,0x82,0x80,0x14,
 0x24,0x04,0x0c,0x02,0x20,0x84,0x20,0x08,0x21,0x00,0x2a,0x00,0x00,0x01,0xe5,
 0x40,0xdf,0x75,0xaa,0xdd,0x5b,0xa5,0x7b,0xda,0xf3,0xff,0xff,0x3c,0x3b,0xeb,
 0xe9,0xf9,0xb9,0xdd,0x4f,0xbd,0xae,0x73,0xed,0x7f,0xd5,0xbf,0x7f,0x51,0xfa,
 0x10,0x28,0xab,0x55,0x52,0xa2,0x42,0x84,0x55,0x2c,0x00,0x40,0xc3,0xcc,0x14,
 0x16,0x06,0x46,0xb1,0x70,0x43,0x52,0x8d,0x12,0x80,0x2a,0xc0,0x80,0x02,0xea,
 0x80,0x02,0x00,0x00,0x00,0x00,0x00,0x00,0x00,0x00,0x00,0x00,0x00,0x00,0x00,
 0x00,0x00,0x00,0x00,0x00,0x00,0x00,0x00,0x00,0x00,0x00,0x00,0x00,0x51,0xeb,
 0x20,0x02,0x00,0x00,0x00,0x00,0x00,0x00,0x00,0x00,0x00,0x00,0x00,0x00,0x00,
 0x00,0x00,0x00,0x00,0x00,0x00,0x00,0x00,0x00,0x00,0x00,0x00,0x00,0x02,0xf5,
 0x80,0x02,0x00,0x90,0x00,0x88,0x04,0x55,0x00,0x81,0xaa,0x12,0x24,0x00,0x44,
 0x22,0x54,0x10,0x02,0x02,0x28,0x11,0x20,0xa4,0x2a,0x91,0x2a,0x2a,0x21,0xe9,
 0x20,0x44,0x55,0x25,0xaa,0x22,0x42,0x00,0x55,0x48,0x00,0x44,0x49,0x6a,0x91,
 0x44,0x01,0xa5,0xa4,0x54,0x42,0x84,0x8a,0x12,0x40,0x24,0x80,0x80,0x42,0xf6,
 0x80,0x06,0x00,0x00,0x11,0x08,0x25,0x52,0x00,0x25,0x55,0x21,0x00,0x85,0x08,
 0x10,0xaa,0x40,0x48,0x00,0x10,0x50,0x40,0x48,0x15,0x02,0x25,0x4a,0x82,0xea,
 0x50,0xa2,0xaa,0xaa,0x44,0xa5,0x82,0x88,0x2a,0x10,0x20,0x94,0x2a,0x20,0xa4,
 0x8a,0x00,0x0a,0x01,0x49,0x45,0x0b,0x15,0x01,0x40,0x50,0x10,0x11,0x11,0xf5,
 0x00,0x02,0x01,0x00,0x10,0x08,0x04,0x25,0x40,0x42,0x85,0x02,0x40,0x85,0x00,
 0x20,0x55,0x50,0x54,0x12,0x08,0x20,0x20,0x54,0x95,0x0a,0x45,0x20,0x43,0xe5,
 0xa0,0x44,0x94,0xaa,0x44,0x21,0x45,0x40,0x12,0x09,0x50,0x50,0x2a,0x10,0xaa,
 0x4a,0x00,0x05,0x01,0x44,0xa3,0x4a,0x45,0x01,0x42,0xa0,0x90,0x8a,0x10,0xfa,
 0x10,0x04,0x41,0x00,0x12,0x44,0x02,0x09,0x89,0x24,0x09,0x09,0x01,0x49,0x45,
 0x00,0xaa,0x50,0x54,0x11,0x48,0x24,0x28,0x56,0x11,0x05,0x4d,0x44,0xa2,0xea,
 0x40,0x23,0x24,0xa5,0x40,0x12,0xa5,0x24,0x24,0x42,0x22,0x24,0xa9,0x24,0x10,
 0xa9,0x00,0x05,0x01,0x44,0xd1,0xdb,0x83,0xbd,0x8d,0xa8,0xb2,0x2f,0x01,0xf5,
 0x00,0x46,0x49,0x08,0x95,0x44,0x02,0x42,0x51,0x88,0x48,0x49,0x04,0x01,0x85,
 0x04,0x15,0x28,0xaa,0x08,0x2a,0xb2,0x26,0x63,0x3b,0x82,0xdd,0x08,0x43,0xf5,
 0xa0,0x00,0x02,0x52,0x00,0x91,0x44,0x14,0x04,0x21,0x02,0x90,0x48,0x54,0x20,
 0x50,0xc0,0x82,0x00,0x52,0xd0,0x44,0x8a,0x0a,0xea,0x28,0x03,0xa5,0x10,0xea,
 0x00,0xa5,0x30,0x01,0x54,0x08,0x22,0x41,0x81,0x14,0xa9,0x02,0x22,0x01,0x0a,
 0x05,0x2a,0x28,0xa9,0x08,0x3d,0x10,0x41,0xa3,0xb0,0x82,0x4a,0x10,0x42,0xed,
 0x50,0x02,0x8a,0x54,0x01,0xa1,0x04,0x08,0x34,0x40,0x04,0x48,0x08,0x52,0x50,
 0x50,0x01,0x01,0x04,0x41,0x96,0x82,0xa8,0x14,0x4a,0x29,0x23,0x42,0x21,0xf1,
 0x00,0x46,0x00,0x00,0x2a,0x12,0x42,0xa5,0x42,0x15,0x91,0x12,0xa1,0x84,0x82,
 0x02,0xa8,0xa4,0x50,0x94,0x0c,0x29,0x82,0x83,0xe0,0xc2,0x4a,0x15,0x83,0xf6,
 0xa0,0x00,0x05,0x00,0x00,0x40,0x06,0x10,0x08,0x42,0x22,0x44,0x0a,0x50,0x24,
 0x54,0x05,0x10,0x05,0x01,0x23,0x44,0x24,0x2d,0x0a,0x13,0x13,0x40,0x11,0xed,
 0x10,0x46,0x00,0x00,0x00,0x28,0xa1,0x82,0xa2,0x28,0x88,0x10,0x41,0x05,0x92,
 0x08,0xa0,0x86,0xa0,0x28,0x95,0x10,0x91,0x82,0xa0,0x8a,0x85,0x0a,0x41,0xf2,
 0x40,0x21,0xa2,0xaa,0x40,0x02,0x06,0x54,0x08,0x82,0x50,0x45,0x14,0x50,0x41,
 0xa2,0x0a,0x50,0x0a,0x42,0x0d,0x4a,0x44,0x13,0x85,0x23,0x4a,0x50,0x02,0xf5,
 0x00,0x86,0x04,0x01,0x95,0x56,0x40,0x01,0x21,0x24,0x05,0x10,0x41,0x05,0x14,
 0x04,0x50,0x02,0x54,0x14,0xa3,0x00,0x91,0x22,0x90,0x82,0x93,0x82,0x52,0xeb,
 0x50,0x02,0x41,0x54,0x00,0x80,0x06,0x54,0x4a,0x09,0x50,0x44,0x28,0x50,0x41,
 0x51,0x85,0x54,0x01,0xa1,0x0e,0x55,0x04,0x4d,0x45,0xab,0x76,0x15,0x01,0xf4,
 0x20,0x44,0x00,0x21,0x54,0x2e,0x42,0x01,0x80,0x50,0x05,0x23,0x85,0x0a,0x92,
 0x08,0x20,0x00,0x50,0x08,0x53,0x00,0xa2,0x03,0x20,0x95,0xda,0x06,0x42,0xeb,
 0x80,0x01,0x65,0xda,0xab,0x85,0x22,0x54,0x29,0x02,0x50,0x88,0x50,0xa0,0x08,
 0xa2,0x8a,0x2a,0x05,0x45,0x85,0xa4,0x08,0x55,0x8a,0x82,0x02,0xd1,0x11,0xea,
 0x40,0x26,0xc0,0x0a,0x55,0x21,0x04,0x01,0x02,0xa9,0x02,0x20,0x02,0x05,0x21,
 0x09,0x20,0x40,0xa8,0x10,0x23,0x09,0xa1,0x82,0x50,0x2b,0x17,0x00,0x42,0xf5,
 0x10,0x42,0x15,0x51,0x08,0x8a,0x46,0xa8,0x54,0x04,0x54,0x0d,0x54,0x50,0x4a,
 0x82,0x4a,0x95,0x02,0x45,0x0d,0x42,0x14,0x2b,0x85,0x82,0x42,0x2a,0x91,0xea,
 0x80,0x04,0x40,0x04,0xa2,0x20,0x22,0x05,0x00,0x51,0x09,0x50,0x81,0x04,0x00,
 0x68,0x00,0x02,0x50,0x10,0xad,0x28,0xc1,0x05,0xa8,0x53,0x25,0x41,0x01,0xf5,
 0x20,0xa2,0x04,0xa2,0x40,0x0a,0x84,0x50,0x55,0x04,0xa4,0x82,0x14,0x52,0xb5,
 0x02,0x55,0x28,0x05,0x09,0x0b,0x84,0x14,0x53,0x41,0x89,0x93,0x14,0x23,0xea,
 0x00,0x05,0x51,0x08,0x0d,0xa0,0x02,0x0a,0x00,0x51,0x01,0x14,0x20,0x21,0x00,
 0x48,0x88,0x40,0x48,0xa2,0xaa,0x10,0x42,0x22,0xd4,0x24,0x02,0x40,0x40,0xf5,
 0xa0,0x42,0x84,0x52,0x50,0x15,0xa5,0xa0,0x52,0x04,0x4a,0x21,0x49,0x08,0x45,
 0x11,0x22,0x95,0x22,0x08,0x18,0x45,0x90,0x8b,0x52,0x81,0x55,0x15,0x13,0xea,
 0x10,0x04,0x22,0x00,0x02,0x40,0x02,0x04,0x08,0x51,0x80,0x80,0x04,0x45,0x28,
 0x84,0x08,0x00,0x88,0x42,0x4d,0x20,0x05,0x25,0xa8,0x92,0x22,0x40,0x41,0xeb,
 0x40,0x42,0x88,0xaa,0x48,0x15,0x44,0x51,0xa1,0x84,0x12,0x56,0x92,0x10,0x85,
 0x50,0xa2,0xaa,0x22,0x28,0xb8,0xca,0x6b,0x95,0x36,0x48,0x8b,0x2e,0x82,0xf4,
 0x80,0x82,0x52,0x40,0x11,0x40,0x03,0x02,0x0a,0x10,0xa8,0x00,0x20,0x2a,0x20,
 0x05,0x09,0x10,0x88,0x82,0xd2,0x35,0x82,0x75,0xad,0x92,0xfe,0x89,0x20,0xf5,
 0x20,0x24,0x84,0x0a,0x44,0x15,0xa4,0xa8,0x24,0x45,0x05,0x54,0x09,0x80,0x4a,
 0x50,0x40,0x85,0x22,0x28,0x40,0xda,0x29,0xce,0x03,0x20,0x4b,0x2e,0x13,0xeb,
 0x90,0x06,0x11,0x20,0x29,0x80,0x02,0x44,0x90,0x10,0x50,0x01,0x44,0x51,0x00,
 0x0a,0x24,0x50,0x90,0x42,0x2a,0x25,0x04,0x11,0x90,0x0a,0x20,0x01,0x81,0xf4,
 0x00,0xa1,0x44,0x95,0x80,0x2a,0x42,0x11,0x09,0x4a,0x09,0xa4,0x52,0x04,0xa9,
 0xa0,0x92,0x02,0x05,0x88,0x80,0x10,0x91,0x20,0x24,0xc0,0x44,0xa4,0x22,0xf5,
 0x20,0x06,0x08,0x40,0x2a,0x90,0x06,0x44,0x42,0x01,0xa2,0x08,0x88,0x14,0x02,
 0x09,0x05,0x54,0x50,0x11,0x55,0x42,0x48,0x8a,0x92,0x2a,0x0a,0x09,0x02,0xeb,
 0x80,0x80,0x42,0x15,0x00,0x05,0x80,0x12,0x24,0xa8,0x04,0xa2,0x22,0xa1,0x54,
 0x42,0x40,0x09,0x05,0x44,0x00,0x14,0x02,0x20,0x41,0x00,0x50,0x42,0x51,0xf4,
 0x20,0x46,0x28,0x20,0x55,0xa0,0x46,0x08,0x51,0x02,0x50,0x09,0x00,0x08,0x00,
 0x28,0x29,0x20,0xa2,0x22,0x95,0x42,0xa9,0x0a,0x14,0xaa,0x02,0x90,0x02,0xeb,
 0x40,0x85,0x42,0x85,0x80,0x4a,0x20,0xa1,0x00,0xa9,0x0a,0xa4,0x5a,0xa1,0x4a,
 0x81,0x84,0x42,0x08,0x08,0x48,0x08,0x04,0x90,0x80,0x00,0x48,0x45,0xa2,0xf4,
 0x5c,0x21,0x9d,0x5a,0xb7,0x9a,0xc7,0x56,0xaf,0x56,0xb5,0x29,0xa5,0x6e,0xb5,
 0x3e,0x79,0xdd,0xfa,0xdb,0x55,0xfb,0xf5,0x67,0x77,0xfb,0xab,0x5a,0x01,0xeb,
 0xa0,0xc6,0xa2,0xaa,0x48,0x65,0x22,0xa9,0x52,0xa9,0x4a,0x56,0x55,0x91,0x4a,
 0xc3,0x16,0x25,0x07,0x64,0xab,0x04,0x15,0xa8,0xac,0x0a,0x54,0xa9,0xa2,0xf4,
 0x00,0x00,0x00,0x00,0x00,0x00,0x00,0x00,0x00,0x00,0x00,0x00,0x00,0x00,0x00,
 0x00,0x00,0x00,0x00,0x00,0x00,0x00,0x00,0x00,0x00,0x00,0x00,0x00,0x02,0xf6,
 0x00,0x00,0x00,0x00,0x00,0x00,0x00,0x00,0x00,0x00,0x00,0x00,0x00,0x00,0x00,
 0x00,0x00,0x00,0x00,0x00,0x00,0x00,0x00,0x00,0x00,0x00,0x00,0x00,0x51,0xe9,
 0x10,0xfa,0xfe,0xfb,0xff,0xfd,0xff,0x7f,0xff,0xbf,0xff,0xff,0xff,0xff,0xff,
 0xfe,0xfd,0xff,0xfd,0xbf,0xfe,0xff,0xfd,0xff,0xbb,0xff,0xff,0xdf,0x01,0xf7,
 0x80,0xdc,0x5f,0xbf,0x76,0xaf,0xaa,0xdb,0xd5,0xea,0xb5,0x55,0xab,0xb6,0xaa,
 0x6b,0xd7,0x55,0xef,0xed,0x55,0x6d,0x6f,0xaf,0xee,0xb5,0x57,0xb5,0x52,0xe9,
 0x50,0xea,0xf2,0xd5,0xbb,0xfb,0xff,0xee,0x7f,0xbf,0xde,0xfe,0xfe,0xed,0xff,
 0xbe,0xbd,0xfe,0x5b,0x77,0xef,0xdb,0xfb,0xfb,0x77,0xff,0xfa,0xff,0x03,0xf4,
 0x00,0xb6,0x5f,0x7f,0xef,0xae,0xd6,0xbd,0xda,0xfb,0xf5,0xab,0xab,0xbf,0xd6,
 0xfb,0xd7,0x57,0xed,0xdd,0xbd,0x7e,0xad,0xae,0xda,0xd5,0x5f,0xdd,0x40,0xeb,
 0x40,0x7d,0xfb,0xd5,0xdd,0xf5,0xbd,0xf6,0xb7,0xd6,0x6e,0xff,0x7e,0xeb,0x7d,
 0xd7,0x7a,0xfd,0x7f,0xbb,0xfb,0xb7,0xff,0xfd,0xbf,0xbe,0xfa,0x73,0x23,0xfa,
 0x20,0xd4,0x5e,0x7f,0xbb,0x5f,0xef,0x5f,0xed,0xbd,0xbd,0xb5,0xd7,0xbe,0xb7,
 0x7d,0xef,0xaf,0xed,0x77,0xaf,0xed,0x55,0xb7,0xea,0xeb,0xaf,0xde,0x01,0xe5,
 0x90,0xfa,0xeb,0xd5,0xef,0xea,0x75,0xf3,0xff,0xef,0xef,0xef,0xfd,0xeb,0xda,
 0xae,0x7b,0xf5,0xba,0xdd,0xf5,0x7e,0xbf,0xdb,0xbf,0xbe,0xfa,0xf7,0x53,0xfb,
 0x00,0x6e,0x7f,0xbf,0x7a,0xbf,0xdf,0x5d,0x5b,0xbd,0xba,0xbe,0x56,0x5f,0xff,
 0xfb,0xae,0xbf,0x6f,0xef,0x2f,0xa1,0xfe,0xff,0xed,0xeb,0x6f,0x5b,0x01,0xe5,
 0xa0,0xbc,0xd5,0xea,0xd7,0x75,0xb5,0xff,0xf6,0xeb,0xef,0xd5,0xff,0xf5,0x57,
 0xd7,0xfd,0x6d,0xd7,0x5a,0x78,0x4f,0xff,0xff,0xfb,0xbe,0xba,0xff,0x22,0xf9,
 0x00,0xd5,0xbf,0xbf,0x7d,0xdf,0xfb,0xaa,0xbf,0xde,0xfa,0xfe,0xaa,0xbe,0xfa,
 0x7d,0x6b,0xfb,0xfd,0xaa,0xa6,0xb2,0xfe,0xff,0xff,0xff,0xef,0xad,0x41,0xe6,
 0x20,0x7a,0xed,0xed,0xae,0x77,0x5f,0xdf,0xd5,0x77,0x2f,0x57,0xff,0xeb,0x5f,
 0xd7,0xbf,0xaf,0x2a,0x55,0xf5,0xaa,0xfe,0xff,0xfd,0xff,0xbb,0xf6,0x13,0xf5,
 0x90,0xac,0x77,0x77,0xfb,0xdd,0xea,0x7d,0x6f,0xdb,0xfd,0xfb,0x55,0xbf,0xf5,
 0xbd,0xea,0xfa,0xa5,0xaa,0xaa,0x54,0xff,0xff,0xfb,0xff,0xff,0xbb,0x82,0xea,
 0x00,0xfa,0xde,0xdd,0x57,0xf7,0xdf,0xeb,0xfa,0xbe,0xeb,0xd6,0xfb,0x6d,0x6f,
 0xeb,0xbf,0x17,0xda,0x5a,0x75,0xab,0xfe,0xff,0xfe,0xff,0xff,0xee,0x21,0xf5,
 0x50,0xbd,0x75,0xbb,0xfd,0xba,0xba,0xb6,0xaf,0x6b,0xbf,0x7f,0x5e,0xdb,0xdb,
 0x7f,0x6b,0xa9,0x25,0xa5,0xf5,0x54,0xff,0xff,0xf9,0xff,0xff,0x5f,0x43,0xea,
 0x00,0xd6,0xdb,0xef,0xb6,0xdf,0xff,0xdf,0xfa,0xfd,0xd5,0xb6,0xf7,0x7f,0xbd,
 0xba,0xbd,0xaa,0xb6,0x55,0xfa,0xaa,0xfe,0x7f,0xff,0xff,0xff,0xff,0x21,0xf5,
 0xa0,0xec,0x7e,0xbd,0xdf,0x75,0x55,0xed,0xaf,0xb7,0x7f,0xfb,0x5d,0xb5,0xf7,
 0xd7,0x4b,0x55,0x49,0x9a,0x75,0x57,0xff,0xff,0xf5,0xff,0xff,0xff,0x01,0xf5,
 0x00,0x7a,0xd7,0xeb,0x7a,0xef,0xff,0x7f,0xfb,0x6e,0xeb,0xdd,0xfb,0xef,0xdd,
 0x6e,0xaa,0xaa,0xd6,0x72,0xda,0xa8,0xfe,0x7f,0xfb,0xff,0xff,0xff,0x93,0xea,
 0x40,0xd5,0xbd,0xfe,0xd7,0x7d,0xab,0xd5,0x5e,0xdb,0x5d,0xb7,0xae,0x5a,0x6b,
 0x5b,0xab,0xaa,0x34,0x8d,0xf5,0x57,0xff,0xbf,0xf6,0xff,0xff,0xff,0x21,0xf5,
 0x10,0x7c,0xef,0x57,0x7d,0xab,0xdd,0xfe,0xf5,0x7f,0xf7,0x7b,0xf7,0xff,0xbf,
 0x6d,0x55,0x55,0xcb,0x66,0xfa,0xa9,0xfe,0xff,0xfb,0xff,0xff,0xff,0x82,0xea,
 0xa0,0xda,0x7d,0xbb,0xef,0xfd,0xf7,0xab,0xaf,0xea,0xbd,0xde,0x5d,0xb5,0xfa,
 0xa5,0xa8,0xaa,0x34,0x99,0xb5,0x56,0xff,0x3f,0xfd,0xff,0xff,0xff,0x21,0xf6,
 0x00,0x76,0xcb,0xee,0xda,0x57,0xaf,0x7e,0xfd,0xdd,0xfb,0xf5,0xf7,0xef,0x2f,
 0x5a,0xab,0xaa,0xa5,0x73,0xf9,0xa9,0xfe,0xdf,0xf2,0xff,0xff,0x7f,0x83,0xe4,
 0x40,0xd9,0xff,0xbb,0x7f,0xfd,0xfa,0xeb,0xaf,0xbf,0x56,0x5f,0xbd,0x7a,0xd5,
 0xa6,0x56,0x55,0x5a,0x8c,0xf6,0x57,0xff,0x7f,0xfd,0xff,0xff,0xff,0x11,0xfb,
 0x20,0xfe,0x75,0xfd,0xaa,0x57,0xaf,0xbe,0xf5,0xea,0xff,0xed,0xd7,0xdf,0x2f,
 0x99,0xa8,0x6a,0xab,0xd5,0xfa,0x57,0xff,0xaf,0xeb,0xff,0xff,0x5f,0x42,0xe4,
 0x90,0x54,0xdf,0xd7,0xf7,0xfe,0xfd,0xeb,0xde,0x7f,0x55,0xb7,0x7a,0xab,0xa8,
 0x65,0x57,0x95,0x54,0x2a,0x6d,0xa9,0xfe,0x5f,0xfd,0xff,0xff,0xbf,0x21,0xfb,
 0x00,0xfd,0xba,0xbe,0xbe,0x6d,0x5b,0xdf,0xb5,0xd6,0xff,0xfd,0xdf,0x7e,0x6b,
 0x5d,0xac,0xaa,0xa5,0x55,0xf9,0x57,0xff,0xf7,0xf6,0xff,0xff,0x6f,0x43,0xe5,
 0x20,0xaa,0xef,0xeb,0xeb,0xdb,0xf7,0x7a,0xef,0x6d,0xab,0xdb,0xf6,0xab,0x94,
 0xa2,0x53,0x55,0x5a,0xaa,0xfa,0xab,0xfe,0x97,0xeb,0xff,0xff,0xbf,0x11,0xfa,
 0x90,0xfc,0xba,0xdd,0xbe,0xfe,0xbd,0xcf,0xbd,0xbe,0xfd,0x6e,0xbb,0x55,0xab,
 0xaa,0xac,0xaa,0xab,0x55,0x95,0xb4,0xfe,0x6f,0xf5,0xff,0xff,0x4b,0x81,0xea,
 0x40,0xd6,0x6f,0x77,0xeb,0x2b,0xf7,0x7e,0xf7,0xdb,0x56,0xb7,0xed,0x96,0x54,
 0x55,0x53,0x55,0x54,0x55,0x4b,0x4b,0xff,0xdb,0xfe,0xff,0xff,0xf7,0x22,0xf5,
 0x00,0xba,0xba,0xdd,0x5f,0xff,0xad,0xf5,0xbd,0xf6,0xff,0xff,0xbf,0x69,0xab,
 0xaa,0xaa,0xd5,0xad,0xaa,0xb4,0x52,0xff,0xb7,0xd1,0xff,0xff,0xad,0x41,0xe5,
 0x90,0xec,0xef,0x7b,0xf5,0x55,0xff,0x5f,0xd7,0x7f,0xad,0x6a,0x6b,0xaa,0xd4,
 0x5a,0x55,0x2a,0x52,0x55,0x4d,0xad,0xfe,0x5b,0xef,0xff,0xff,0xdb,0x12,0xfa,
 0x40,0xba,0x7a,0xd7,0xbf,0xfe,0x55,0xb5,0x7d,0xcb,0xf7,0xbf,0xbd,0xad,0x2a,
 0xa5,0xaa,0xb5,0x55,0xb5,0xb5,0xb4,0xfe,0xad,0xf5,0xff,0xff,0x6a,0x41,0xea,
 0x00,0xed,0xd7,0xff,0xea,0xab,0xff,0xef,0xf7,0x7d,0xbb,0xea,0xc7,0x55,0xdb,
 0x2a,0x55,0x4a,0xaa,0x4a,0x4a,0x4b,0xff,0x6a,0xde,0xff,0xbf,0xad,0x82,0xf5,
 0x50,0x7a,0x7d,0x5a,0xbf,0xfe,0xaa,0xba,0xad,0xdb,0xee,0xbf,0xdc,0xab,0x24,
 0x75,0xb5,0xb5,0x55,0xd5,0xb2,0xd4,0xfe,0xb7,0xe9,0xff,0x7f,0xdb,0x11,0xf5,
 0x20,0xdc,0xdb,0xf7,0xd6,0xb7,0xff,0xf7,0xde,0xfe,0xfb,0xda,0xa3,0x56,0xd7,
 0x8a,0x4a,0xaa,0xaa,0x2a,0x4d,0x33,0xff,0x6a,0xd7,0xff,0x5f,0xb5,0x22,0xea,
 0x00,0x6b,0xef,0xbd,0x7b,0xdb,0x56,0x5d,0x77,0x6b,0x5f,0xbf,0xdc,0x57,0x35,
 0xd5,0xaa,0x55,0x55,0xb5,0x2a,0x8d,0x7e,0xbb,0xfa,0xff,0xef,0xde,0x82,0xea,
 0xa0,0xbc,0xbd,0xd7,0xef,0xfd,0xfd,0xf7,0xfb,0xdf,0xea,0x6a,0x33,0xaf,0xc8,
 0x5a,0x55,0xaa,0xaa,0x4a,0xd5,0x72,0xff,0xae,0xe7,0xff,0xbf,0x51,0x11,0xeb,
 0x00,0xda,0x6b,0x7d,0x5d,0x57,0xab,0xbe,0xad,0xba,0xdf,0x97,0xe4,0x5d,0x9b,
 0xa6,0xaa,0x55,0x55,0xb5,0xaa,0xce,0xbe,0x69,0xdd,0xff,0x27,0x6f,0x43,0xf4,
 0xa0,0xec,0xde,0xd7,0xf7,0xfd,0xff,0xeb,0xde,0x77,0x75,0x6d,0x1b,0xbf,0x64,
 0x59,0x55,0xaa,0xaa,0x4a,0x55,0x31,0xff,0xde,0xf2,0xff,0xfb,0xda,0x01,0xeb,
 0x10,0x76,0x77,0x7d,0xbd,0xae,0xb5,0xbd,0xfb,0xde,0xff,0xb3,0xca,0x7e,0x57,
 0x65,0xb5,0xaa,0x6a,0xad,0x5a,0xcd,0x3e,0x6b,0x9f,0xff,0xaf,0x6d,0x51,0xf5,
 0x80,0xda,0xbd,0xb7,0xd7,0xfb,0xde,0xee,0xae,0x7b,0x55,0x8d,0x34,0xed,0x54,
 0x8d,0x4a,0x55,0x95,0x52,0xa5,0x32,0xdf,0x96,0xf5,0xff,0x5a,0x5b,0x03,0xf5,
 0x20,0xbe,0xf7,0xdd,0xfe,0xd7,0xf7,0xdb,0x7b,0xeb,0xff,0x72,0xcb,0xfe,0xa9,
 0x7a,0xb5,0x55,0x55,0xad,0xaa,0x4d,0xbf,0x7d,0xa5,0xff,0x75,0xe7,0x22,0xe5,
 0x80,0x68,0x5d,0xf7,0x6b,0x7d,0xad,0xbe,0xde,0xbe,0x2d,0x95,0xac,0xba,0x57,
 0x83,0x4a,0xaa,0xaa,0xd2,0x5a,0xd5,0xee,0xca,0xda,0xff,0xce,0x38,0x41,0xfa,
 0x20,0xfe,0xf7,0x5d,0xbd,0xaf,0xfb,0xf7,0xeb,0x57,0xb7,0x55,0x53,0xfd,0xab,
 0x7c,0xb5,0x55,0x55,0x2b,0xab,0x32,0xaf,0x76,0xef,0xbf,0x75,0xcf,0x11,0xeb,
 0x80,0x54,0xdb,0xee,0xd7,0xfa,0x6e,0xad,0xbe,0xfd,0x5d,0xaa,0xac,0xea,0x57,
 0x43,0x55,0xaa,0x5a,0xd5,0xa4,0xca,0xbe,0xd5,0x54,0x7f,0xab,0x75,0x41,0xf4,
 0x10,0xfd,0xb7,0x7b,0xff,0xd7,0xdd,0xfb,0x6b,0x5b,0xa7,0xb5,0xab,0xba,0xb4,
 0x5c,0x95,0x55,0xa5,0x2c,0x2d,0x35,0x57,0x5b,0xff,0x5f,0x57,0xdb,0x83,0xf5,
 0x40,0x5a,0xed,0xde,0x55,0xbd,0x77,0xb7,0xde,0xfe,0x5a,0x4a,0x52,0xf5,0x4b,
 0xa3,0xea,0xaa,0x5a,0xd3,0xd2,0xcd,0xee,0xb6,0x89,0xaf,0xea,0xac,0x20,0xea,
 0x20,0xed,0xbf,0xf7,0xfe,0xef,0xde,0xdd,0xf7,0xe7,0xa5,0x75,0x59,0x6d,0xa8,
 0x5c,0x15,0x55,0xa5,0x5a,0x56,0x32,0xb7,0xda,0x76,0xff,0x5d,0xb7,0x12,0xf5,
 0x80,0xb4,0xfa,0xda,0xab,0xba,0x7b,0x77,0x7b,0xbb,0x5a,0x8a,0xa6,0xb2,0xb7,
 0xa2,0xea,0xaa,0x5a,0xa5,0xa9,0xcd,0x5a,0x57,0xeb,0x57,0x75,0xdb,0x83,0xea,
 0x10,0xfe,0xaf,0xaf,0xfe,0xf7,0xd6,0xdd,0xae,0x7e,0xd5,0x5a,0x59,0x4d,0x4c,
 0x5f,0x15,0x55,0xa5,0x2c,0x2b,0x32,0xd5,0xac,0x5d,0x5b,0xdb,0xaa,0x20,0xf5,
 0x20,0xa9,0xf6,0xfa,0xb5,0xae,0x7f,0xf7,0xfb,0xab,0x2a,0xa5,0xa6,0xb2,0xaa,
 0xa0,0xda,0xaa,0x5a,0xd3,0xda,0xad,0xba,0xf7,0xaa,0xef,0xae,0x76,0x43,0xea,
 0x80,0xfc,0x5b,0x6f,0xdf,0xfd,0xb5,0xdd,0xae,0x5f,0xd5,0x5a,0x59,0x5b,0x55,
 0x5d,0x55,0xaa,0xaa,0x5a,0x49,0x95,0xcd,0x54,0xdb,0xb4,0x6a,0x9b,0x01,0xeb,
 0x20,0x56,0xfd,0xbd,0xeb,0x57,0xdf,0x7f,0xfb,0xb6,0xaa,0xa2,0xa6,0xa4,0x65,
 0xa5,0xaa,0x55,0x55,0x25,0xbb,0x54,0x75,0xaf,0xb6,0x4b,0xdb,0x75,0x93,0xf4,
 0x80,0xfc,0x57,0x77,0xbf,0xfe,0xfa,0xd2,0x6f,0x4d,0x2a,0xdd,0x5c,0x2b,0xad,
 0x6a,0x55,0x55,0x55,0xed,0x22,0xab,0xd6,0xf4,0x6d,0xf5,0x36,0xcf,0x21,0xed,
 0x20,0xd5,0xfe,0xdb,0xed,0xab,0x57,0xbf,0xda,0xab,0xd5,0x2a,0xa5,0xd4,0x52,
 0x95,0x52,0xaa,0xaa,0x12,0xda,0x6a,0xbd,0x9b,0x5a,0x5d,0xcb,0x72,0x03,0xf3,
 0x10,0xba,0xd5,0x6e,0x77,0xfd,0xfd,0xeb,0x7f,0x55,0x2a,0xa5,0xd2,0x2a,0xad,
 0x56,0xad,0x55,0x55,0xd5,0x25,0xa5,0x4a,0x6e,0xab,0x67,0x7d,0xdd,0xa1,0xec,
 0x40,0xee,0xbe,0xfb,0xdd,0x56,0xd7,0x7e,0xb5,0x6b,0xd5,0x5a,0x2d,0xd5,0x52,
 0xa9,0x52,0xad,0xaa,0x2a,0xdb,0x9a,0xf5,0xb5,0x76,0xba,0x66,0xab,0x03,0xf3,
 0x20,0xb4,0xf7,0xde,0xb6,0xff,0xae,0xab,0xef,0x9a,0xaa,0x56,0xab,0x2a,0xad,
 0xb6,0x56,0xa9,0x55,0xed,0x14,0x65,0xae,0xea,0xcd,0xad,0x9d,0xf6,0x51,0xf4,
 0x00,0xfd,0xbd,0xb5,0xfd,0xaa,0xfb,0xfe,0xbb,0x64,0x55,0xa9,0x54,0xab,0x52,
 0x49,0xa9,0x56,0xaa,0x12,0xe5,0x9a,0x5a,0x9b,0x76,0x77,0xeb,0xab,0x03,0xeb,
 0xa0,0x56,0xeb,0xff,0xd7,0xff,0xf6,0x5b,0xbd,0x96,0x2a,0x55,0xab,0x54,0x55,
 0xb5,0x56,0xa9,0x55,0xeb,0x3a,0x65,0xd5,0x6d,0x9b,0xa9,0xb5,0xdc,0x50,0xf5,
 0x10,0xfc,0xbf,0x5a,0x7b,0xab,0x5f,0xf7,0x57,0x69,0xd5,0xaa,0x54,0xab,0x56,
 0xa5,0xaa,0x56,0xaa,0x94,0x4a,0xd5,0x5e,0xd6,0x74,0x5d,0xd7,0x57,0x03,0xe9,
 0x40,0x55,0xd5,0xf7,0xde,0xfe,0x7a,0xbd,0xae,0x5a,0xab,0x56,0xab,0xaa,0x54,
 0x5b,0x55,0xa9,0x55,0x35,0x55,0x9d,0xb5,0xbd,0xcb,0x76,0x5a,0xf4,0x20,0xfb,
 0x10,0xfc,0x7f,0x6d,0xa1,0xab,0xd7,0xd7,0x5b,0xa7,0x54,0xd1,0x54,0x55,0xab,
 0xa4,0xaa,0x56,0xaa,0xca,0xaa,0x62,0x6a,0x4b,0x7d,0xab,0xb5,0x57,0x43,0xe4,
 0x80,0xaa,0xea,0x0f,0x00,0xfc,0xed,0x7e,0xab,0x94,0xaa,0x2e,0xab,0x6a,0xa9,
 0x5a,0x55,0x51,0x55,0xad,0xaa,0x5a,0xbd,0x76,0xaf,0xdd,0x5e,0xad,0x01,0xf5,
 0x20,0xfe,0xdf,0x01,0x1e,0x68,0x7f,0xeb,0xa5,0x6a,0x55,0xe9,0x54,0x95,0x56,
 0xab,0xaa,0xae,0xaa,0x51,0x55,0xa5,0xa5,0xad,0x69,0xab,0xf3,0xf5,0x52,0xeb,
 0x80,0xa8,0x76,0xc0,0x2b,0xdc,0xd6,0x5e,0x5b,0x55,0xb5,0x16,0xad,0xaa,0xaa,
 0x52,0x55,0xa9,0x55,0xd6,0xaa,0x5a,0x6e,0x5b,0xd7,0x6a,0x8e,0x9a,0x02,0xf4,
 0x20,0xfe,0x1d,0xf0,0x7e,0xf4,0xfd,0xf7,0xa5,0xaa,0x4a,0x51,0x53,0x55,0x55,
 0xad,0xaa,0x56,0xaa,0x2d,0x55,0xa5,0xbb,0xe6,0xba,0xde,0xf9,0xed,0x41,0xeb,
 0x90,0x54,0x1b,0xa8,0x77,0x5c,0x57,0xbd,0x5a,0x55,0xab,0x5e,0xa9,0xaa,0x55,
 0x55,0xab,0xa9,0x55,0xa2,0xaa,0x56,0xca,0xbb,0xca,0x62,0xa7,0xb6,0x22,0xf5,
 0x00,0xfb,0x0f,0xfc,0x5e,0xee,0xfd,0xd7,0xaa,0xaa,0x54,0x61,0xad,0x5a,0xaa,
 0xaa,0x54,0x56,0xaa,0x5d,0x55,0xa9,0x7d,0x6d,0xbf,0xbd,0x5e,0x5b,0x11,0xea,
 0x20,0xec,0x02,0xae,0x75,0x7a,0xaf,0xbe,0xaa,0x55,0xb5,0x4e,0x53,0xd5,0xaa,
 0x52,0xd5,0xb4,0x55,0xa9,0xaa,0x56,0xaa,0xda,0x52,0x6b,0xb9,0xaa,0x82,0xea,
 0x40,0xba,0x07,0x7b,0xdf,0xdf,0xfa,0x6b,0x55,0xaa,0x8a,0xb2,0xb4,0x2a,0x55,
 0x5d,0x2b,0x4b,0xb5,0x56,0xb5,0xaa,0x56,0x57,0xed,0x96,0x67,0xef,0x21,0xf5,
 0x10,0xdd,0x02,0xef,0xf5,0xea,0xaf,0xbe,0xaa,0xaa,0x76,0x59,0xab,0xca,0xaa,
 0xa2,0x54,0xb5,0x94,0xaa,0x4a,0x55,0xdb,0x6a,0x37,0xfb,0xb8,0xb5,0x02,0xf5,
 0x40,0x76,0x81,0xbd,0x6f,0xbf,0xfa,0x55,0x55,0x53,0x49,0xa7,0x54,0x35,0x55,
 0xad,0xaa,0x4a,0x6b,0x55,0xb5,0xaa,0x76,0xdb,0xea,0xaa,0xaf,0xaa,0x51,0xf5,
 0x80,0xec,0x41,0xd7,0xda,0xed,0xc0,0x0f,0xa8,0xa8,0xa2,0x2c,0x54,0xa8,0xa0,
 0x5a,0xa0,0x52,0x94,0x50,0xa5,0xaa,0xca,0xb6,0x5a,0x57,0xea,0x5d,0x83,0xea,
 0x20,0xda,0xc0,0xfb,0x7f,0x3b,0x00,0x15,0x28,0xb0,0x80,0x02,0x08,0x50,0x40,
 0x25,0x40,0x15,0x28,0xa0,0x5a,0x55,0xb5,0xaa,0xdf,0xfc,0x57,0x76,0x21,0xea,
 0x10,0xf9,0x40,0xad,0xda,0x0f,0x8e,0x0b,0x10,0x00,0x80,0x02,0x0c,0x10,0xa0,
 0x12,0x84,0x0a,0x10,0x40,0x4d,0x55,0x5d,0xdd,0x6a,0x27,0xda,0xab,0x12,0xf5,
 0x40,0xae,0xe0,0xff,0x6f,0x0d,0x05,0x47,0x08,0x31,0x41,0x21,0x40,0x08,0x41,
 0x0d,0x0b,0x05,0x88,0x60,0xb1,0xaa,0xea,0x73,0xb5,0xda,0x3b,0xdd,0x41,0xf5,
 0x80,0xfc,0x80,0x55,0xfd,0x07,0x0f,0x50,0x44,0x00,0x82,0x08,0x22,0xc8,0xa0,
 0x02,0x04,0x22,0x20,0x90,0x4e,0x55,0xff,0xfe,0xff,0xff,0xef,0xfb,0x03,0xeb,
 0x20,0x52,0x60,0xff,0xab,0x82,0x0d,0x0b,0xa0,0x80,0x41,0x1b,0x68,0x00,0xa1,
 0x82,0x0b,0x11,0xc2,0xd0,0xaa,0xaa,0xfe,0x6f,0xef,0xff,0xfe,0x7f,0x51,0xf4,
 0x10,0x7d,0xe0,0xb5,0xfe,0x03,0x07,0x35,0x50,0xc0,0x40,0x05,0x10,0xe0,0x40,
 0x01,0x04,0x1e,0x50,0x60,0x52,0xab,0xb6,0xff,0xbd,0xeb,0xff,0xef,0x01,0xeb,
 0x40,0xae,0xa0,0xee,0x55,0xc1,0x06,0x0f,0x20,0x50,0xa1,0x1a,0x2c,0x10,0xb0,
 0xc0,0x03,0x01,0x28,0x28,0xbb,0x54,0xfd,0xbf,0xff,0x7e,0x77,0xfd,0xa3,0xf4,
 0x00,0xf8,0xe0,0xbb,0xff,0xc1,0x05,0x1a,0x5c,0x20,0xa0,0x06,0x12,0x58,0xa0,
 0x80,0x04,0x1e,0x54,0x50,0x4a,0x55,0xff,0xf6,0xff,0xff,0xdd,0x7f,0x01,0xf5,
 0x50,0xaf,0xa0,0x6e,0x6d,0xa1,0x87,0x1c,0x20,0xd0,0x40,0x09,0x14,0x24,0x58,
 0x61,0x82,0x02,0x28,0xa8,0xa5,0xaa,0xee,0xff,0xd7,0xff,0xff,0xf7,0x43,0xea,
 0x00,0xf4,0xe0,0xfb,0x8f,0xe0,0x01,0x05,0x1e,0x28,0xb0,0x05,0x0b,0x38,0xa0,
 0x00,0x03,0x0d,0x16,0xa8,0x5a,0x55,0xfd,0xbf,0xff,0xdb,0xff,0xff,0x23,0xf5,
 0xa0,0xda,0x40,0xaf,0xe5,0xa0,0x82,0x02,0x3e,0x54,0x50,0x02,0x14,0x06,0x58,
 0xe0,0x80,0x02,0x0a,0x54,0xa5,0xaa,0xbe,0xfa,0x7d,0x7f,0xf7,0xde,0x93,0xea,
 0x00,0xbe,0xc1,0x7d,0xc7,0xe0,0x41,0x0d,0x1f,0x34,0x88,0x82,0x05,0x18,0x84,
 0x80,0xc1,0x06,0x15,0xa2,0x5a,0x55,0xf7,0xff,0xff,0xdf,0xbd,0xf7,0x01,0xf5,
 0x40,0x71,0x03,0xd7,0xe1,0x51,0xa1,0x02,0x17,0x0e,0x84,0x02,0x0a,0x17,0x42,
 0x70,0x20,0x01,0x0a,0x44,0xa5,0x5a,0xdd,0xef,0xd6,0xfb,0xff,0x7f,0x43,0xed,
 0x20,0xdc,0x82,0xfd,0xb0,0xe0,0x40,0x85,0x0c,0x2a,0x40,0x81,0x05,0x08,0xa0,
 0x20,0x90,0x86,0x05,0xb0,0x5a,0xa5,0x7e,0xbf,0xff,0xff,0xf7,0xfe,0x23,0xf2,
 0x90,0xf6,0x0f,0x14,0xe0,0x21,0xa8,0x02,0x0b,0x17,0xb0,0x42,0x85,0x0b,0xd8,
 0x40,0x60,0x41,0x0a,0x48,0xa5,0x5a,0xff,0xfd,0x7f,0xdf,0xdf,0xb7,0x43,0xeb,
 0x00,0x5c,0x15,0x00,0x78,0x03,0xac,0x41,0x8d,0x09,0x48,0xa1,0x02,0x05,0x94,
 0x03,0x4c,0x81,0x05,0xb6,0x5a,0xa5,0xfa,0xff,0xdd,0xf5,0xfd,0xff,0x11,0xfa,
 0xa0,0xfa,0xff,0xa2,0xdf,0x2e,0x57,0x86,0x92,0x2b,0xaa,0x42,0xc5,0x94,0x6a,
 0x88,0xb2,0x46,0x0a,0x49,0xd5,0x9a,0xde,0x6f,0xff,0xff,0x7f,0xfb,0x43,0xe5,
 0x10,0x56,0xab,0xff,0xea,0xdb,0x5b,0xb9,0x6a,0x55,0xb5,0xba,0x36,0x4b,0x55,
 0xaf,0x5a,0x79,0xeb,0xb6,0x4a,0xed,0x52,0xf9,0xf7,0x7f,0xf7,0x6f,0x03,0xfa,
 0x40,0xfd,0xfd,0x5a,0xb7,0xee,0xaa,0x66,0x95,0xd5,0x4a,0x45,0xc9,0xb4,0xaa,
 0x54,0xa5,0x46,0x29,0x49,0x7d,0x5b,0xab,0xa6,0xbf,0xde,0xff,0xff,0xa1,0xe5,
 0x00,0xaa,0xaf,0xf7,0x7e,0xbf,0x6b,0x59,0x6d,0x2a,0x55,0x5a,0x35,0x4b,0xa5,
 0xa9,0xaa,0x54,0xd5,0xba,0xcb,0xb6,0x56,0x2d,0xfa,0xff,0xdf,0xfe,0x23,0xea,
 0xa0,0xfc,0xfa,0xbe,0xd7,0xeb,0x95,0x96,0x92,0xd5,0xaa,0xb5,0x4a,0xb5,0x5a,
 0xaa,0x5a,0xb5,0xaa,0xd6,0xb4,0xd5,0xa9,0xd2,0xd5,0x77,0xfb,0xdf,0x03,0xf5,
 0x00,0x55,0xaf,0xd5,0x7a,0xfd,0xaa,0x6a,0xad,0x4a,0xb5,0x4a,0xb5,0xaa,0xaa,
 0xb5,0x6a,0xab,0xaa,0x6a,0xdf,0x6a,0x57,0x5a,0xaa,0xde,0xff,0x7d,0x93,0xea,
 0x50,0xfa,0xfd,0xff,0xef,0x57,0x55,0x95,0x52,0x5a,0x4a,0xb5,0x6b,0x55,0x25,
 0x4b,0x95,0x54,0xab,0xb6,0x32,0x5f,0xb5,0xa5,0x55,0xfb,0xdb,0xff,0x41,0xf5,
 0x00,0xb6,0xab,0x56,0xbd,0xed,0x55,0x65,0xad,0xa5,0x55,0x25,0x4a,0x55,0xdd,
 0x54,0xa5,0x4b,0xda,0xad,0xed,0x72,0x4b,0x55,0xaa,0xf4,0x7e,0xd7,0x03,0xed,
 0xa0,0xec,0xfe,0xfd,0x6b,0xbb,0xaa,0x1a,0xa5,0x5a,0xaa,0x5a,0xb5,0xaa,0x22,
 0xab,0x5a,0xb4,0x25,0xd5,0x56,0x9d,0xb5,0xaa,0x55,0xd5,0xff,0xff,0x23,0xf2,
 0x10,0xba,0xab,0xaf,0xbe,0xef,0xad,0xea,0xb5,0xaa,0xa5,0xca,0x55,0xd5,0xba,
 0xb4,0xaa,0x95,0xfa,0x6e,0xeb,0xe7,0x4a,0x55,0xaa,0x5a,0xef,0xfd,0x53,0xed,
 0x40,0xed,0x7e,0xfd,0xeb,0x3e,0x52,0x95,0x4a,0x65,0x50,0x35,0xaa,0x2a,0xc5,
 0x4a,0x55,0x55,0x4d,0xb5,0x5d,0xba,0xb5,0x5a,0x55,0xd3,0xfd,0xdf,0x02,0xf1,
 0x00,0xba,0xdb,0xd7,0xbe,0xfb,0x56,0x69,0x54,0x1d,0xa0,0xaa,0x52,0xd5,0x5a,
 0xb5,0xaa,0xaa,0xba,0x6b,0xb3,0x6d,0xa5,0x52,0xab,0x36,0xbe,0xff,0x23,0xef,
 0xa0,0xec,0x0e,0x00,0xe8,0x4e,0xa9,0x56,0xab,0x22,0x50,0x55,0x9d,0xaa,0xaa,
 0x4a,0x55,0xd5,0xed,0xb6,0xde,0x56,0x5b,0xad,0x54,0x89,0xe9,0xf5,0x42,0xf1,
 0x00,0xb6,0x0b,0x00,0x80,0x77,0x55,0xa9,0x5a,0x1b,0x50,0x55,0x65,0x55,0x55,
 0xb5,0xaa,0x6a,0xab,0xaa,0x55,0xbb,0x4a,0xd5,0xaa,0xea,0xf6,0xdf,0x13,0xee,
 0x50,0xfa,0x2e,0xf0,0x03,0xbd,0xaa,0x56,0x65,0x54,0xa8,0xaa,0x49,0xab,0xaa,
 0x4a,0x55,0xd5,0x56,0x5f,0x6b,0xe5,0xb5,0x2a,0x55,0x2d,0x69,0xff,0x83,0xf2,
 0x80,0xae,0x3d,0x78,0x07,0xaa,0x5a,0x55,0x9d,0x15,0x50,0x55,0xb6,0x54,0x55,
 0xb5,0xaa,0xba,0xba,0xe9,0xdc,0x5d,0xab,0x54,0xb5,0x52,0x9b,0xff,0x02,0xed,
 0x20,0xf8,0x2b,0xd0,0x1c,0xbc,0xa6,0xaa,0xd2,0x2a,0xa8,0xaa,0xa9,0xaa,0x54,
 0x55,0x55,0x4d,0xd5,0x5e,0x57,0x6b,0x55,0xab,0x4a,0xad,0x64,0xdb,0x61,0xf2,
 0x80,0xda,0x3e,0xe8,0x1f,0x54,0x59,0xa5,0x2a,0x2d,0x54,0x55,0x4e,0x55,0xab,
 0xaa,0xaa,0xb6,0x6f,0xb3,0x75,0xbd,0x56,0x55,0xad,0xaa,0x96,0xfe,0x03,0xed,
 0x50,0x6e,0x0b,0xbc,0x2b,0x58,0xa5,0x5a,0x55,0x09,0xb4,0xaa,0xb1,0xaa,0x54,
 0x55,0x55,0xdb,0x52,0xcd,0x9a,0x65,0xa9,0xaa,0x52,0x55,0x79,0x7b,0xa3,0xf2,
 0x00,0xba,0x1f,0x7c,0x3d,0x48,0x55,0xa5,0xaa,0x0a,0xa4,0x56,0x42,0x55,0xab,
 0xaa,0xaa,0xb6,0x7e,0xbb,0x77,0xdb,0x57,0xd5,0xac,0xaa,0x82,0xfc,0x01,0xed,
 0xa0,0xec,0x16,0xd4,0x2b,0x58,0xad,0x5a,0x55,0x1b,0x58,0xa9,0xa1,0xaa,0x54,
 0x55,0xd0,0xaa,0xd5,0xea,0xca,0xae,0xaa,0x2a,0xab,0xaa,0xfe,0xd6,0x53,0xf2,
 0x00,0xfa,0x0d,0x7e,0x3f,0xa0,0x72,0xa5,0xaa,0x0a,0x2a,0xad,0x40,0x55,0xab,
 0x2a,0xa0,0xdd,0x6a,0x37,0x7d,0x75,0x55,0xd5,0x54,0x55,0x01,0xf2,0x01,0xeb,
 0xa0,0x5a,0x0f,0xea,0x2d,0xb0,0x0a,0x5a,0xa1,0x04,0x0d,0x52,0xa0,0x2a,0xa0,
 0x55,0x68,0xb3,0x5b,0xed,0xa6,0x4b,0xab,0xaa,0xaa,0xaa,0x7e,0xeb,0x43,0xf4,
 0x40,0xf6,0x05,0xb6,0x3e,0x40,0x05,0x50,0x80,0x0d,0x01,0x14,0x00,0x0a,0x40,
 0x0a,0x00,0x6e,0xd6,0x9a,0x59,0xba,0x55,0x55,0x55,0x55,0xc1,0xd4,0x91,0xf5,
 0x10,0x5c,0x0f,0xed,0x2b,0x70,0x21,0x28,0x00,0x02,0x02,0x08,0x00,0x0a,0x84,
 0x05,0x00,0xb4,0x6b,0xd5,0xde,0xd7,0xaa,0xaa,0xaa,0xaa,0x3e,0xad,0x02,0xed,
 0x00,0xf5,0x05,0xbf,0x3d,0x88,0x40,0x28,0x86,0x85,0x28,0x44,0xa8,0x05,0x83,
 0x00,0x14,0x5a,0xb5,0xb7,0x66,0x6a,0x57,0x55,0x55,0x55,0xc1,0xa5,0x41,0xf4,
 0x50,0x5e,0x03,0xf5,0x16,0x30,0x30,0x10,0x44,0x02,0x14,0x38,0x68,0x81,0x06,
 0x13,0x18,0xe8,0xae,0xda,0xba,0xbd,0xa9,0xaa,0xaa,0xaa,0x2e,0xd9,0x93,0xeb,
 0x80,0xf4,0x07,0xaf,0x1f,0x68,0x08,0x08,0xba,0x02,0x09,0x14,0x90,0x42,0x81,
 0x0c,0x34,0x54,0xbb,0xb5,0xd5,0x2b,0xab,0x55,0x55,0x55,0x59,0x17,0x22,0xf4,
 0x10,0xaa,0x82,0xfb,0x16,0x10,0x10,0x14,0x88,0x01,0x0a,0x26,0xa8,0x80,0x02,
 0x13,0x1e,0xb8,0x55,0x57,0x6f,0xd5,0x56,0xaa,0xaa,0xaa,0xa6,0xe8,0x01,0xeb,
 0x40,0xfd,0x83,0xb6,0x1d,0x18,0x04,0x0b,0xf4,0x02,0x03,0x19,0xac,0x60,0x83,
 0x0c,0x24,0xcc,0xea,0xba,0x32,0x7d,0x69,0x55,0xd5,0xaa,0xb2,0x26,0x42,0xe9,
 0x20,0xaa,0x80,0xdd,0x07,0x04,0xc0,0x14,0x20,0xc2,0xc0,0x12,0x50,0x80,0x00,
 0x05,0x1e,0xb4,0x5f,0xed,0xed,0xd3,0xa7,0xaa,0x2a,0x55,0x4d,0xad,0x21,0xf6,
 0x80,0xfc,0xc1,0x77,0x05,0x1a,0x98,0x5a,0xd0,0x01,0x10,0x0d,0xae,0xd0,0x82,
 0x02,0x11,0x68,0xb2,0x9b,0x56,0xae,0x98,0x55,0xd5,0xaa,0x52,0xa9,0x82,0xe4,
 0x20,0x5a,0x41,0xdd,0x07,0x06,0x54,0x25,0x20,0x00,0xe8,0x12,0x68,0x50,0x81,
 0x0a,0x1f,0xbc,0x57,0x75,0xbb,0x59,0x57,0xaa,0x2d,0x55,0xdd,0x56,0x11,0xfb,
 0x10,0xed,0xc1,0xf7,0x82,0x09,0xaa,0xba,0xd0,0x20,0x28,0x0d,0x06,0xa0,0x40,
 0x85,0x05,0xd6,0x6a,0xaf,0xda,0xef,0x55,0x55,0xa4,0xaa,0x22,0xaa,0xa2,0xe8,
 0x40,0xba,0xa0,0xde,0x40,0x07,0x2a,0x45,0x20,0x40,0x50,0x03,0x61,0x50,0xa0,
 0x02,0x06,0xab,0xda,0xb2,0xab,0x54,0x6b,0x55,0xdb,0xb6,0xde,0xa9,0x02,0xf7,
 0x80,0xec,0xc0,0x6b,0xe0,0x09,0x14,0x53,0xd1,0x50,0x10,0x0c,0x52,0x50,0xa0,
 0x82,0x05,0x75,0xb7,0xed,0x76,0xbb,0x4a,0xd5,0x52,0x49,0x51,0x56,0x41,0xf4,
 0x20,0x7a,0x40,0x1d,0x50,0x0d,0x04,0xc0,0x28,0x20,0x00,0x03,0xa8,0x20,0x50,
 0x81,0xc3,0xda,0x5c,0xb5,0xaa,0xad,0xb5,0x2a,0xad,0x56,0xad,0x6a,0x11,0xeb,
 0x10,0x0d,0x80,0x00,0xfc,0x05,0xc0,0x03,0x54,0xb0,0x40,0x05,0xa4,0x30,0x5c,
 0x81,0x40,0x6d,0xe7,0x9b,0xde,0xd6,0x4a,0xb5,0x52,0x52,0xa5,0x95,0x42,0xf5,
 0x40,0x0a,0x00,0x40,0xaf,0x1a,0x20,0x00,0x2a,0xa8,0x40,0x05,0x58,0x01,0xd2,
 0x00,0xb0,0x97,0xb5,0xec,0x35,0xb5,0xad,0x4a,0xad,0x6d,0x55,0xaa,0x02,0xea,
 0x80,0xfa,0xff,0xff,0xfb,0x26,0xea,0x0b,0x55,0x56,0x51,0x49,0x57,0x82,0x2a,
 0x01,0x6e,0x6a,0x5b,0x37,0xeb,0x6f,0x53,0xd5,0x2a,0x95,0xaa,0x55,0x51,0xf5,
 0x20,0xec,0xaa,0xd6,0xae,0xd9,0x15,0x54,0xa9,0xa9,0xae,0x96,0xa9,0x56,0xd5,
 0xe0,0xd5,0x7d,0xb5,0xeb,0x5a,0xb2,0xad,0x2a,0xd3,0x65,0x55,0xaa,0x02,0xea,
 0x10,0xba,0xff,0x7b,0xf7,0x26,0xda,0xab,0x96,0x54,0x69,0x69,0x56,0xb5,0x2a,
 0xa0,0x6a,0xab,0xde,0xbc,0xae,0xbd,0xb2,0xd5,0x2c,0xaa,0xaa,0x6a,0x91,0xf5,
 0x40,0xfd,0xb6,0xee,0xdd,0xd8,0x25,0x54,0x69,0xab,0x96,0xaa,0x54,0x49,0xd5,
 0x50,0x9f,0xf6,0x69,0x43,0x73,0x47,0x47,0x2a,0xd3,0x54,0xb5,0x8a,0x22,0xe5,
 0x80,0xa6,0xed,0x5b,0x7b,0x53,0xea,0xab,0x4a,0x55,0xa5,0x55,0xab,0xb6,0x2a,
 0xf0,0xf2,0x0d,0xd7,0xfe,0xae,0xfa,0xda,0xea,0x54,0xab,0x4a,0xb5,0x41,0xfa,
 0x20,0xfc,0xdf,0xfe,0xef,0xac,0x15,0x54,0x5b,0x55,0x75,0xaa,0x54,0x49,0x55,
 0x90,0x2d,0xf5,0x6d,0x55,0xd5,0xad,0x2b,0x15,0x5b,0x55,0xb5,0x6a,0x02,0xe5,
 0x40,0xaa,0x76,0xd7,0xba,0x57,0xda,0xab,0xa4,0xaa,0x9a,0xab,0x56,0xad,0x2a,
 0xe8,0xd6,0x57,0xb5,0xbb,0x7b,0x56,0xd5,0xea,0xa4,0xaa,0x4a,0x95,0x51,0xfa,
 0x10,0xfd,0xdd,0xbd,0x6f,0x52,0x25,0x54,0x5b,0x55,0x45,0x54,0xa9,0xb2,0x2a,
 0x58,0xbd,0xdc,0x56,0xad,0xa6,0xb9,0x2a,0x0b,0xab,0x56,0xb5,0xaa,0x02,0xe5,
 0x20,0x5a,0x7b,0xeb,0xda,0xd4,0xda,0xab,0xa4,0xaa,0xba,0xad,0xaa,0xad,0x15,
 0xb0,0x72,0xb3,0x5d,0x6b,0x7d,0xd7,0xdb,0x74,0x5a,0xa9,0xaa,0x6a,0xa1,0xfa,
 0x40,0xed,0xb6,0xbf,0xb7,0x2f,0xa5,0x54,0x6b,0xb5,0x4a,0xa2,0x56,0x52,0x02,
 0xc0,0xaf,0xad,0xe6,0xb6,0xcb,0x6e,0x45,0xab,0x55,0x55,0x55,0x95,0x02,0xeb,
 0x00,0xf4,0xdf,0xf5,0xfe,0xd0,0x56,0x56,0x9d,0x4a,0x65,0x5d,0xa9,0xad,0x02,
 0x40,0xaa,0x76,0x5b,0xdb,0x74,0xb3,0x3a,0xa9,0xaa,0xaa,0x4a,0x55,0xa1,0xf4,
 0x90,0x5e,0xed,0xae,0x5b,0x2b,0xa9,0xa9,0x62,0xb5,0x9a,0xa9,0xaa,0x52,0xdd,
 0xfe,0xdd,0xaa,0x76,0xb5,0x5f,0x6d,0xa5,0x56,0x55,0x55,0xb5,0xaa,0x02,0xeb,
 0x20,0xf4,0x07,0x00,0x00,0x6d,0x55,0x56,0xad,0xaa,0x2a,0x4b,0x55,0xad,0x12,
 0x15,0xb3,0xef,0xad,0x6a,0xa5,0xed,0x5a,0x55,0xa9,0xb6,0xaa,0x55,0x51,0xf4,
 0x00,0x5d,0x1d,0x00,0x80,0x52,0xed,0x57,0xa5,0x4a,0x05,0x74,0xab,0x52,0x6d,
 0xed,0x5e,0x59,0xaa,0x5f,0x7b,0x5b,0xa7,0xaa,0x56,0x49,0x55,0xaa,0x02,0xeb,
 0x90,0xea,0x37,0xf0,0x87,0x6a,0xbf,0xaf,0x5a,0x75,0x05,0x96,0xac,0x5a,0xa5,
 0xb5,0xea,0xae,0x7f,0xc9,0xaa,0x55,0xdb,0xaa,0xaa,0xad,0xaa,0xd5,0x22,0xf5,
 0x40,0xbc,0x1e,0x78,0x4d,0xb7,0xff,0xab,0x54,0x85,0x0a,0xa8,0x51,0xa5,0x5a,
 0xda,0x95,0x79,0xc2,0xbe,0x55,0xb7,0x29,0x55,0xa9,0x52,0x55,0x2a,0x81,0xea,
 0x20,0xf5,0x3d,0xd8,0x4b,0xfd,0xf5,0x57,0xab,0xba,0x06,0x57,0xae,0xaa,0xaa,
 0x55,0x7b,0xd7,0xbd,0x65,0xdf,0x6c,0x6b,0x55,0x56,0x56,0xab,0x55,0x11,0xfa,
 0x00,0xae,0x37,0xf0,0x4e,0xed,0xff,0xad,0x54,0x4d,0x49,0xa9,0xab,0x5a,0x55,
 0xb6,0x56,0xad,0xd6,0xba,0xb4,0xd5,0x96,0xaa,0xab,0xb5,0x54,0xaa,0x42,0xe5,
 0x40,0xf9,0x1a,0x5c,0x77,0x25,0x6e,0x57,0xa7,0xb2,0xad,0x56,0x54,0xa5,0xaa,
 0x5a,0xed,0x75,0x6b,0xd7,0xd7,0xae,0x6a,0x55,0x54,0x4a,0xab,0x55,0x21,0xf5,
 0x10,0x56,0x0f,0xfc,0xdb,0xda,0x51,0xab,0x58,0x55,0x52,0xa9,0x53,0x5b,0x55,
 0xed,0x15,0xcb,0xae,0xad,0x6c,0x79,0x95,0xaa,0xab,0xb5,0x54,0xa2,0x02,0xeb,
 0xa0,0xfc,0x1d,0xb4,0x7c,0x95,0xae,0xaa,0xab,0xaa,0x96,0x2a,0xb6,0xa4,0xaa,
 0x55,0xef,0xb6,0xb9,0x5a,0xdb,0xa7,0xb3,0x55,0x2a,0x4a,0xad,0x40,0x51,0xf4,
 0x00,0x6a,0x17,0xec,0x55,0x65,0x51,0x55,0x54,0x55,0x69,0xd5,0xa9,0x5a,0x55,
 0x6d,0xb9,0x6d,0x6b,0xf5,0x55,0x5a,0x4d,0xaa,0xd5,0x55,0xa3,0xb0,0x02,0xf5,
 0x90,0xdc,0x0b,0x76,0xfc,0x82,0x86,0xaa,0xa8,0x50,0x85,0x0a,0x86,0x4a,0x40,
 0x35,0x54,0x50,0x85,0x0f,0x3a,0xf4,0x26,0x54,0x02,0x85,0x5c,0xc0,0xa2,0xea,
 0x40,0xba,0x0e,0x1e,0x54,0x40,0x01,0x2b,0x20,0xa8,0x80,0x05,0x02,0x2a,0xa0,
 0x0a,0x2c,0x78,0x01,0x00,0x05,0x58,0x0b,0xa0,0xc0,0x00,0x03,0x00,0x02,0xf5,
 0x80,0xf6,0x0b,0x00,0x7e,0x40,0x00,0x14,0x50,0x50,0x00,0x02,0x00,0x05,0x82,
 0x06,0x08,0xc0,0x80,0x03,0x06,0xa8,0x82,0x20,0x80,0x00,0x0e,0x00,0x11,0xeb,
 0x20,0xdc,0x06,0x00,0x36,0x00,0x04,0x05,0x60,0x20,0xc0,0x11,0x03,0x06,0x05,
 0x21,0x46,0x30,0x04,0x10,0x22,0xd8,0xa2,0x20,0x40,0x04,0x21,0xb0,0xc2,0xf4,
 0x10,0xea,0x03,0x37,0x9a,0x61,0x82,0x47,0x90,0x10,0x41,0x00,0x08,0x81,0x84,
 0x10,0x62,0x50,0x85,0x1c,0x31,0x68,0x41,0x10,0x21,0x06,0x3d,0x48,0x01,0xeb,
 0x40,0x3d,0x05,0x3d,0x4d,0x00,0x05,0x10,0x68,0xa8,0x20,0x0d,0x94,0x02,0x03,
 0x0f,0x58,0x78,0x45,0x0a,0x18,0xd4,0x20,0xc0,0x00,0x81,0x05,0x54,0x11,0xea,
 0x40,0xea,0x83,0x1b,0xff,0x91,0x81,0x35,0x28,0x68,0xc1,0x89,0x68,0xc1,0x82,
 0x18,0x31,0xa0,0x02,0x06,0x2c,0x2c,0x10,0xb8,0x90,0x02,0x19,0xb4,0xa2,0xea,
 0x10,0xdc,0x83,0xfe,0xab,0x80,0x42,0x2a,0x54,0x54,0x20,0x0a,0x94,0xa0,0x02,
 0x0b,0x2c,0xd8,0x03,0x0b,0x16,0x78,0x10,0x24,0x40,0x81,0x06,0x48,0x03,0xf5,
 0xa0,0x76,0x82,0xab,0xfe,0x40,0x81,0x15,0x28,0x48,0xd0,0x05,0x6a,0x80,0x82,
 0x0a,0x14,0xac,0x80,0x05,0x15,0x2e,0x00,0xd7,0xa0,0xc2,0x1a,0xb6,0x50,0xf2,
 0x00,0xb9,0xc1,0xfe,0x3b,0xa0,0x60,0x0a,0x14,0x36,0x50,0x03,0x95,0x60,0x81,
 0x0a,0x1a,0x74,0x41,0x03,0x0d,0x2a,0xe0,0x58,0x40,0x41,0x05,0x44,0x03,0xed,
 0x20,0xee,0xc1,0x55,0x77,0x50,0x81,0x15,0x36,0x24,0x28,0x02,0x35,0x90,0x40,
 0x05,0x15,0xd6,0x40,0x81,0x0a,0x15,0x4c,0x27,0xd0,0x20,0x0d,0xba,0x40,0xf3,
 0x40,0x7a,0x41,0xff,0x58,0xa8,0xa0,0x0a,0x08,0x2b,0xd0,0x82,0xca,0x60,0x81,
 0x02,0x0e,0xaa,0x41,0x83,0x05,0x1f,0xb0,0x58,0x20,0xc0,0x02,0x42,0x93,0xec,
 0x00,0xda,0xc0,0xdb,0x31,0x60,0x20,0x05,0x86,0x34,0x0c,0x41,0x35,0xa0,0xa0,
 0x82,0x0b,0x75,0xa0,0xc2,0x86,0x10,0x58,0x26,0xb8,0x20,0x05,0xa3,0x20,0xf2,
 0xb0,0xba,0x60,0x77,0x2c,0x18,0x10,0x0a,0x05,0x0b,0xc0,0x82,0x4a,0x58,0xd0,
 0x00,0x05,0xa2,0xf0,0x81,0x02,0x09,0x24,0x1a,0x50,0x10,0x02,0xd1,0x02,0xeb,
 0x00,0x76,0xc0,0x2d,0x38,0x54,0x80,0x02,0xe0,0x14,0xa0,0x40,0xb5,0x20,0x90,
 0xc3,0x02,0x28,0xa0,0x60,0x01,0x34,0x08,0x24,0x2c,0x80,0x05,0x28,0x21,0xf5,
 0xa0,0x2c,0x00,0x00,0x1e,0x28,0x80,0x0d,0x28,0x0b,0x50,0x41,0x55,0x10,0x68,
 0x40,0x07,0x74,0xd8,0xa0,0x03,0x1a,0x00,0x0b,0x22,0x40,0x02,0xa8,0x42,0xea,
 0x00,0x0a,0x00,0x00,0x0a,0x56,0x60,0x06,0xa8,0x0c,0x5a,0xa1,0xaa,0x00,0x16,
 0xa1,0x05,0x5a,0xb0,0x60,0x01,0x6d,0xa0,0x15,0x5a,0xa0,0x05,0xaa,0x12,0xf5,
 0x90,0xfc,0xff,0xff,0x5e,0x29,0x5c,0x29,0xd3,0x92,0xa4,0x52,0x55,0x85,0xf4,
 0xc2,0xc6,0xab,0x6e,0xb9,0xa5,0xb6,0x48,0x0a,0x94,0x5c,0xe2,0x55,0x41,0xf5,
 0x40,0xaa,0x6a,0xaf,0xf5,0xd7,0x93,0x55,0x2d,0xad,0xad,0xaa,0xaa,0x6a,0x8b,
 0xb6,0x3d,0x76,0x55,0x67,0xeb,0x4d,0xb7,0x75,0x75,0xd5,0x1e,0x6b,0x03,0xed,
 0x10,0xfc,0xdf,0xfa,0xbf,0x5a,0xac,0xaa,0xaa,0x55,0xaa,0x5a,0xa5,0x92,0x74,
 0x55,0xd2,0xdd,0xda,0x5d,0x5d,0xf5,0x49,0x94,0x8b,0x2a,0xd1,0x94,0x50,0xf2,
 0x00,0xaf,0xb5,0xdd,0xd6,0xa5,0x65,0x55,0x55,0xaa,0x55,0xaa,0x5a,0xed,0x8a,
 0xaa,0xdd,0x6a,0xdf,0xaa,0xe7,0x9a,0xb6,0x57,0x6c,0xa5,0x4d,0xeb,0x02,0xf5,
 0x60,0xf8,0xfe,0x77,0x7f,0xab,0x9a,0xaa,0xaa,0x55,0xaa,0x65,0x55,0x93,0x6a,
 0x52,0x67,0xab,0xb2,0x75,0xba,0x6f,0x4b,0xe8,0x93,0x5a,0xb2,0x14,0x21,0xeb,
 0x00,0xdb,0xb7,0xdd,0xea,0x56,0x65,0x55,0x55,0xaa,0x55,0x4d,0xad,0x6c,0xd5,
 0xae,0xba,0xbb,0xad,0xee,0xa6,0xd2,0xda,0x2b,0xb4,0xa5,0x55,0x75,0x43,0xea,
 0x40,0x00,0x00,0x00,0x00,0x00,0x00,0x00,0x00,0x00,0x00,0x00,0x00,0x00,0x00,
 0x00,0x00,0x00,0x00,0x00,0x00,0x00,0x00,0x00,0x00,0x00,0x00,0x00,0x10,0xf5,
 0x10,0x00,0x00,0x00,0x00,0x00,0x00,0x00,0x00,0x00,0x00,0x00,0x00,0x00,0x00,
 0x00,0x00,0x00,0x00,0x00,0x00,0x00,0x00,0x00,0x00,0x00,0x00,0x00,0x40,0xf5,
 0x40,0x01,0x00,0x00,0x01,0x80,0x04,0x02,0x84,0x00,0x00,0x10,0x80,0x00,0x08,
 0x00,0x00,0x00,0x00,0x00,0x48,0x08,0x00,0x00,0x01,0x48,0x00,0x00,0x20,0xe5,
 0x00,0x52,0x4a,0x52,0xa4,0x2a,0x48,0xa8,0x10,0x95,0x2a,0x45,0x15,0x55,0x45,
 0xa9,0x2a,0x49,0xaa,0x52,0x11,0xa2,0xaa,0x54,0x54,0x02,0x55,0x25,0x05,0xfd,
 0xa0,0x04,0x90,0x04,0x09,0x10,0x11,0x02,0x45,0x48,0x40,0x00,0x20,0x00,0x10,
 0x02,0x40,0x22,0x01,0x04,0x24,0x11,0x00,0x21,0x82,0x28,0x08,0x48,0x50,0xe2,
 0x10,0x90,0x42,0x52,0x44,0x85,0x44,0xa9,0x20,0x21,0x15,0x55,0x45,0xa9,0x82,
 0x54,0x15,0x88,0x54,0x52,0x82,0x44,0x55,0x84,0x10,0x82,0xa2,0x02,0x09,0xfb,
 0xe0,0x6b,0xad,0x4a,0xb9,0x6a,0xab,0xaa,0xde,0x4e,0x65,0xab,0xba,0x56,0x7d,
 0xaa,0xaa,0x37,0xab,0xad,0x5d,0x3b,0x49,0xbb,0xed,0x7d,0xad,0xba,0xe6,0xf4,
 0x10,0x56,0x5b,0xb5,0x46,0x55,0x6c,0x55,0x91,0xd8,0x5a,0x54,0x45,0x55,0x45,
 0x55,0x55,0xe4,0x54,0x52,0x52,0xa2,0x96,0x22,0x15,0x42,0x49,0x55,0x19,0xe5,
 0xd0,0xa9,0xa2,0x4a,0xb9,0xaa,0x93,0xaa,0xae,0x56,0xd4,0x56,0x55,0xaa,0xb2,
 0xaa,0xaa,0x9b,0xaa,0xad,0xaa,0x5c,0xe9,0xdc,0xd2,0xad,0xb6,0xaa,0xd6,0xfa,
 0x40,0x54,0x59,0xb5,0x46,0xb5,0x68,0x55,0x61,0xa3,0x2b,0xab,0xb6,0x55,0x4d,
 0xd5,0xaa,0x44,0x55,0xa5,0x55,0xd3,0xae,0x46,0x2d,0x55,0x99,0xaa,0xaa,0xea,
 0xb0,0xab,0x56,0x55,0xb5,0x4a,0x97,0xaa,0x9e,0x5c,0xd6,0x54,0x49,0xaa,0xb2,
 0x55,0x55,0xbb,0xaa,0x2a,0xad,0x4a,0x51,0xb9,0xda,0xaa,0x6a,0x55,0x55,0xf5
 };
