/**********************************************************************
 *  (c) Copyright 1993, 1994, 1995 Sun Microsystems, Inc.
 **********************************************************************/
#define OWsplashBW.bm_width 237
#define OWsplashBW.bm_height 237
static unsigned char OWsplashBW.bm_bits[] = {
   0xff, 0xff, 0xff, 0xff, 0x20, 0x00, 0x01, 0x00, 0x40, 0x00, 0x10, 0x08,
   0x10, 0x10, 0x01, 0x00, 0x04, 0x00, 0x20, 0x10, 0x00, 0x01, 0x00, 0x00,
   0x08, 0x10, 0x00, 0x01, 0x81, 0x08, 0x5a, 0xad, 0xaa, 0xf6, 0x8a, 0x2a,
   0x54, 0x55, 0x15, 0xaa, 0x4a, 0xa1, 0x42, 0x05, 0x54, 0x55, 0x51, 0x55,
   0x85, 0x42, 0x55, 0x54, 0x55, 0x55, 0x51, 0x45, 0x55, 0x54, 0x14, 0x04,
   0xef, 0xf7, 0xff, 0xdd, 0x11, 0x00, 0x09, 0x22, 0x42, 0x81, 0x00, 0x14,
   0x08, 0x40, 0x02, 0x20, 0x04, 0x20, 0x28, 0x28, 0x08, 0x20, 0x04, 0x20,
   0x84, 0x20, 0x88, 0x08, 0x21, 0x01, 0xbe, 0xde, 0xd6, 0xee, 0xa2, 0xaa,
   0xa0, 0x88, 0x28, 0x2a, 0x54, 0x41, 0xa5, 0xaa, 0xa8, 0x0a, 0xa1, 0x8a,
   0x42, 0x85, 0xa2, 0x8a, 0xa2, 0x8a, 0x22, 0x8a, 0x22, 0x42, 0x88, 0x04,
   0xeb, 0xbb, 0x7d, 0xfb, 0x08, 0x00, 0x12, 0x22, 0x02, 0x41, 0x01, 0x12,
   0x10, 0x10, 0x05, 0xa4, 0x14, 0x21, 0x24, 0x50, 0x08, 0x20, 0x10, 0x21,
   0x08, 0x21, 0x10, 0x29, 0x25, 0x12, 0xbf, 0x6e, 0xf7, 0xef, 0x42, 0x55,
   0x41, 0x48, 0xa8, 0x14, 0xaa, 0x44, 0x45, 0x85, 0x50, 0x01, 0x20, 0x84,
   0x08, 0x05, 0xa1, 0x4a, 0x2a, 0x44, 0x52, 0x84, 0x42, 0x40, 0x90, 0x00,
   0xea, 0xfb, 0xdf, 0xfa, 0x91, 0x08, 0x14, 0x85, 0x02, 0x40, 0x00, 0x10,
   0x10, 0x28, 0x02, 0xaa, 0x8a, 0x28, 0x92, 0x50, 0x8a, 0x10, 0x41, 0x11,
   0x01, 0x51, 0x28, 0x15, 0x22, 0x0a, 0x7f, 0x6f, 0xeb, 0xef, 0x14, 0x42,
   0x85, 0x20, 0x48, 0x2a, 0xaa, 0x8a, 0x4a, 0x81, 0xa8, 0x00, 0x40, 0x02,
   0x41, 0x0a, 0x20, 0x85, 0x08, 0x24, 0x54, 0x08, 0x45, 0x40, 0x89, 0x00,
   0xdd, 0xbd, 0xbd, 0xfd, 0x40, 0x28, 0x50, 0x94, 0x12, 0x81, 0x10, 0x20,
   0x21, 0x4a, 0x02, 0xaa, 0x2a, 0xa9, 0x14, 0x40, 0x09, 0x10, 0x22, 0x91,
   0x80, 0x24, 0x10, 0x15, 0x24, 0x0a, 0xeb, 0xf6, 0x77, 0xf7, 0x95, 0x82,
   0x04, 0x01, 0x20, 0x24, 0x45, 0x55, 0x88, 0x10, 0x54, 0x01, 0x01, 0x40,
   0x20, 0x15, 0xa2, 0xa2, 0x08, 0x04, 0x15, 0x42, 0x85, 0x40, 0x81, 0x00,
   0xbe, 0xdf, 0xde, 0xdd, 0x08, 0x54, 0x52, 0xa8, 0x4a, 0x49, 0x00, 0x80,
   0x04, 0x24, 0x01, 0x52, 0x54, 0x15, 0x45, 0xa0, 0x08, 0x08, 0xd2, 0x52,
   0xa1, 0x14, 0x20, 0x12, 0x28, 0x0a, 0x7b, 0xfd, 0xff, 0xff, 0xa2, 0x00,
   0x81, 0x02, 0x20, 0x20, 0x55, 0x15, 0xa2, 0x82, 0x94, 0x08, 0x02, 0x40,
   0x10, 0x09, 0x45, 0x45, 0x01, 0x00, 0x14, 0x80, 0x14, 0x49, 0x45, 0x01,
   0xef, 0xff, 0xff, 0xff, 0x09, 0x2a, 0x54, 0xa8, 0x8a, 0x0a, 0x20, 0x42,
   0x28, 0x29, 0x40, 0xa4, 0xa8, 0x2a, 0x49, 0x24, 0x28, 0x10, 0x54, 0x55,
   0x41, 0x55, 0x41, 0x24, 0x10, 0x14, 0xdd, 0x9a, 0x10, 0x51, 0xa2, 0x40,
   0x01, 0x12, 0x00, 0x44, 0x45, 0x10, 0x05, 0x80, 0x2a, 0x01, 0x01, 0x01,
   0x02, 0x89, 0x42, 0x22, 0x01, 0x00, 0x04, 0x02, 0x94, 0x80, 0x82, 0x02,
   0xb7, 0x3f, 0x44, 0x04, 0x10, 0x15, 0x4a, 0x41, 0x55, 0x21, 0x10, 0x4a,
   0x50, 0x2a, 0x04, 0x52, 0x54, 0xa8, 0x54, 0x20, 0x08, 0x49, 0x54, 0x2a,
   0xa9, 0x54, 0x22, 0x12, 0x29, 0x08, 0xfd, 0x3b, 0x12, 0xa2, 0x44, 0x82,
   0x20, 0x14, 0x20, 0x94, 0x4a, 0x21, 0x05, 0x81, 0xa0, 0x08, 0x0a, 0x02,
   0x81, 0x8a, 0xa2, 0x84, 0x02, 0x85, 0x00, 0x80, 0x08, 0x49, 0x80, 0x02,
   0xd7, 0x9e, 0x40, 0x09, 0x12, 0x28, 0x8a, 0x42, 0x85, 0x02, 0x24, 0x04,
   0x50, 0x94, 0x12, 0xa2, 0xa0, 0x54, 0x54, 0x10, 0x08, 0x12, 0xa8, 0x10,
   0xb5, 0x12, 0x25, 0x84, 0x56, 0x08, 0xbf, 0x3d, 0x95, 0x50, 0x41, 0x44,
   0x10, 0x28, 0x28, 0xa8, 0x80, 0x48, 0x85, 0x20, 0x44, 0x08, 0x49, 0x01,
   0x01, 0x45, 0xa1, 0x20, 0x05, 0x62, 0x00, 0x24, 0x40, 0x11, 0x20, 0x11,
   0xea, 0x3b, 0x02, 0x04, 0x14, 0x11, 0x45, 0x45, 0x42, 0x02, 0x12, 0x21,
   0x28, 0x8a, 0x10, 0x45, 0x02, 0x52, 0x48, 0x20, 0x14, 0x94, 0xa0, 0x04,
   0x4a, 0x89, 0x14, 0xa4, 0x08, 0x04, 0xbf, 0x9e, 0x50, 0x49, 0x81, 0x88,
   0x10, 0x10, 0x09, 0xa8, 0xa8, 0x8c, 0x42, 0x25, 0x8a, 0x20, 0x28, 0x08,
   0x25, 0x92, 0x82, 0x42, 0x12, 0x28, 0x21, 0x40, 0x42, 0x02, 0x85, 0x02,
   0xeb, 0x1f, 0x25, 0x24, 0x54, 0x22, 0x44, 0x85, 0xa4, 0x01, 0x01, 0x20,
   0x08, 0x80, 0x20, 0x95, 0x80, 0x20, 0x90, 0x04, 0x54, 0x08, 0x89, 0x82,
   0x84, 0x12, 0x29, 0x29, 0x30, 0x08, 0xfe, 0x3a, 0x88, 0x88, 0x08, 0x48,
   0x29, 0x50, 0x00, 0xaa, 0x4a, 0x45, 0x51, 0x28, 0x55, 0x40, 0x2b, 0xe5,
   0x22, 0x49, 0x01, 0x11, 0x22, 0x48, 0x28, 0xa4, 0x00, 0x80, 0x84, 0x02,
   0x5b, 0x5f, 0x22, 0x22, 0xa2, 0x12, 0x02, 0x05, 0x55, 0x04, 0x10, 0x10,
   0x84, 0x42, 0x00, 0x14, 0x80, 0xfc, 0x08, 0x20, 0x28, 0xc2, 0x00, 0x11,
   0x02, 0x09, 0x54, 0x55, 0x11, 0x08, 0xef, 0x9f, 0x08, 0x49, 0x41, 0x44,
   0x50, 0x48, 0x88, 0x50, 0x82, 0x4a, 0x51, 0x18, 0x29, 0x43, 0xf4, 0x5f,
   0xa5, 0x8a, 0x82, 0x14, 0xaa, 0x44, 0xa9, 0x40, 0x42, 0x00, 0x44, 0x05,
   0x75, 0x3d, 0xa2, 0x00, 0x0a, 0x91, 0x0a, 0x21, 0x21, 0x82, 0x54, 0x20,
   0x02, 0x85, 0x84, 0x90, 0xe2, 0x6a, 0x10, 0x20, 0x29, 0x22, 0x40, 0x12,
   0x00, 0x2a, 0x29, 0x55, 0x11, 0x10, 0xdf, 0x5f, 0x09, 0x54, 0x10, 0x04,
   0x20, 0x0a, 0x42, 0x1f, 0x80, 0x84, 0x28, 0x20, 0x12, 0x24, 0x08, 0x5f,
   0x82, 0x0a, 0x84, 0x48, 0x8d, 0x40, 0xaa, 0x10, 0x00, 0x08, 0x42, 0x09,
   0x7d, 0x3d, 0xb4, 0xab, 0xee, 0xdb, 0xd7, 0xf4, 0x9e, 0x96, 0x2a, 0x29,
   0x84, 0x8a, 0x40, 0x89, 0x04, 0x3b, 0x28, 0xa1, 0x22, 0x01, 0x10, 0x2a,
   0x05, 0x45, 0x95, 0x92, 0x14, 0x02, 0xef, 0x5f, 0xfe, 0x3d, 0x77, 0xad,
   0xfd, 0x5e, 0x8f, 0x5b, 0x00, 0x84, 0x22, 0x41, 0x28, 0x10, 0xa2, 0x6d,
   0x45, 0x14, 0x50, 0x54, 0x85, 0x80, 0x50, 0x00, 0x42, 0x40, 0xa2, 0x08,
   0xbb, 0x1d, 0xa9, 0x56, 0xdc, 0x87, 0x0e, 0xf0, 0x41, 0x1f, 0x55, 0x22,
   0x14, 0x14, 0x85, 0x42, 0xa8, 0x36, 0x10, 0x41, 0x0a, 0x01, 0x30, 0x4a,
   0x88, 0x54, 0x08, 0x15, 0x40, 0x02, 0x6d, 0x3b, 0xf0, 0x0f, 0xb1, 0xaa,
   0x33, 0x55, 0x95, 0x55, 0x82, 0x48, 0x42, 0x20, 0x12, 0x94, 0x82, 0x9f,
   0x22, 0xa4, 0x20, 0xaa, 0x82, 0x10, 0x25, 0x89, 0xa2, 0x40, 0x15, 0x04,
   0xff, 0x9f, 0x46, 0x4d, 0xe8, 0x03, 0x87, 0xf0, 0xc0, 0x9e, 0x48, 0x92,
   0x90, 0x8a, 0x40, 0x01, 0xa8, 0x1a, 0x08, 0x09, 0x8a, 0x00, 0x08, 0x25,
   0x00, 0x22, 0x10, 0x12, 0x48, 0x09, 0xff, 0x5f, 0xe8, 0x2b, 0xd5, 0xca,
   0x49, 0x3a, 0xa4, 0x0f, 0x10, 0x00, 0x24, 0x44, 0x2a, 0xc8, 0x84, 0x5f,
   0xa5, 0x24, 0x21, 0x52, 0xa2, 0x00, 0xa9, 0x88, 0x4a, 0x49, 0x02, 0x00,
   0x04, 0x28, 0xe1, 0x0e, 0x78, 0xd3, 0x01, 0xa9, 0x92, 0x25, 0x45, 0x55,
   0x81, 0x10, 0x80, 0x22, 0xd2, 0x0a, 0x10, 0x42, 0x88, 0x88, 0x48, 0x52,
   0x02, 0x22, 0x00, 0x84, 0xa8, 0x0a, 0x92, 0x42, 0xa4, 0xab, 0xf2, 0x63,
   0x52, 0x1c, 0x88, 0x4a, 0x28, 0x00, 0x2a, 0xa5, 0x15, 0x95, 0xc0, 0x4f,
   0x41, 0x08, 0x25, 0x22, 0x15, 0x84, 0x94, 0x88, 0x2a, 0x11, 0x02, 0x10,
   0x44, 0x94, 0xe8, 0x0e, 0x50, 0xef, 0x88, 0xb4, 0x22, 0x12, 0x82, 0x94,
   0x40, 0x08, 0x40, 0x00, 0x4a, 0x1b, 0x2a, 0x52, 0x80, 0x08, 0x80, 0x48,
   0x20, 0x25, 0x40, 0xa4, 0x54, 0x05, 0x10, 0x02, 0x45, 0x4f, 0xf5, 0x51,
   0x25, 0x1e, 0x08, 0x81, 0x11, 0x49, 0x0a, 0x41, 0x2a, 0x52, 0xe1, 0x8d,
   0x04, 0x09, 0x55, 0xa2, 0x4a, 0x22, 0x4a, 0x80, 0x2a, 0x89, 0x00, 0x00,
   0x22, 0x51, 0xe0, 0x2b, 0x50, 0x3f, 0x00, 0x4b, 0xa1, 0x28, 0x44, 0x24,
   0x50, 0x24, 0x81, 0x08, 0x64, 0x47, 0x50, 0xa0, 0x00, 0x09, 0x10, 0x88,
   0x00, 0x2a, 0x80, 0x20, 0xaa, 0x0a, 0x44, 0x04, 0x69, 0x8d, 0xf2, 0x32,
   0x59, 0x06, 0x04, 0x82, 0x92, 0x80, 0x22, 0x09, 0x14, 0x41, 0xa9, 0x85,
   0x84, 0x44, 0x2a, 0xa2, 0xa2, 0x52, 0xa5, 0x40, 0x15, 0x82, 0x00, 0x04,
   0x11, 0x21, 0xc4, 0x5f, 0xb4, 0x5f, 0x82, 0xab, 0xfa, 0x29, 0xe4, 0x2b,
   0xfc, 0x53, 0x61, 0xf4, 0x7f, 0x2b, 0x29, 0xbf, 0x81, 0x08, 0x1f, 0x04,
   0x1a, 0xf5, 0x80, 0xfc, 0x5f, 0x11, 0x44, 0x94, 0xa2, 0x0a, 0xd1, 0x0d,
   0x28, 0x03, 0xf8, 0x12, 0x79, 0x83, 0xaa, 0x82, 0x08, 0xba, 0xea, 0x05,
   0xc2, 0xf7, 0x2a, 0xc2, 0x5b, 0x21, 0x5f, 0x58, 0x2b, 0x7a, 0x6b, 0x04,
   0x10, 0x01, 0xe8, 0x4f, 0x74, 0xa7, 0xc2, 0x49, 0xaf, 0x43, 0xdc, 0x0b,
   0xff, 0x17, 0x22, 0x57, 0xd8, 0x53, 0x78, 0xc1, 0x87, 0xe8, 0x2e, 0x94,
   0x15, 0xe9, 0x91, 0x87, 0x3f, 0x01, 0x45, 0x54, 0xa1, 0x2e, 0xd1, 0x06,
   0x48, 0x11, 0xfd, 0x89, 0xb6, 0xd2, 0x56, 0x45, 0x88, 0x1d, 0x75, 0x83,
   0xfe, 0x14, 0x2d, 0xb2, 0xbb, 0x82, 0x9f, 0x78, 0xc5, 0x03, 0x6d, 0x14,
   0x22, 0x02, 0xca, 0x4b, 0xa4, 0xad, 0xe2, 0xa5, 0x57, 0x23, 0xf6, 0xa3,
   0xe1, 0x97, 0xc2, 0x4f, 0xa8, 0x29, 0x52, 0x42, 0x9f, 0x70, 0x2e, 0xa8,
   0x2a, 0xb5, 0x51, 0x29, 0xb6, 0x02, 0x10, 0xa9, 0xc0, 0x1d, 0xf1, 0x17,
   0xa8, 0x80, 0xe9, 0x91, 0xab, 0xcb, 0x6a, 0x03, 0x68, 0x25, 0xf9, 0x11,
   0x6f, 0x08, 0x57, 0x9d, 0x37, 0x81, 0x0f, 0xe8, 0xe1, 0x87, 0x3a, 0x08,
   0x44, 0x04, 0x6a, 0x87, 0xe0, 0x42, 0x71, 0xea, 0xb8, 0xc8, 0x70, 0x61,
   0xa0, 0x55, 0xf5, 0x12, 0xad, 0xc4, 0x1d, 0x51, 0x1d, 0x8c, 0x9e, 0xd4,
   0xaa, 0xb8, 0x6a, 0x51, 0x1c, 0x01, 0x94, 0x50, 0xc1, 0x3e, 0xaa, 0x05,
   0xba, 0x50, 0x7c, 0xc3, 0xe9, 0x3b, 0xf5, 0x03, 0xd8, 0x43, 0xf8, 0x49,
   0x5f, 0x02, 0x76, 0xab, 0x15, 0xc2, 0x0f, 0xf2, 0xd0, 0x02, 0x35, 0x0a,
   0x21, 0x05, 0xd4, 0x8d, 0x64, 0xaf, 0x28, 0x62, 0xd4, 0x68, 0x52, 0x51,
   0x50, 0x55, 0xb5, 0x14, 0xaa, 0xa0, 0x0b, 0x24, 0x3b, 0x46, 0x5f, 0xd1,
   0x46, 0xa1, 0xb5, 0x57, 0xd8, 0x00, 0x0a, 0x50, 0x41, 0x2b, 0xf0, 0x05,
   0x3c, 0x34, 0xf5, 0x62, 0xf8, 0x1d, 0xf5, 0x83, 0xfc, 0x81, 0xfc, 0xd4,
   0x5d, 0x11, 0x5d, 0x93, 0x0d, 0xe8, 0x15, 0xd4, 0xf0, 0x22, 0x02, 0x14,
   0xa0, 0x0a, 0xd4, 0x9f, 0x52, 0x57, 0x95, 0x52, 0x5e, 0x30, 0x5a, 0x4d,
   0x58, 0x29, 0xae, 0x54, 0x56, 0xf2, 0x06, 0x44, 0x6f, 0xc9, 0x2b, 0x25,
   0x47, 0x61, 0xb2, 0x97, 0x94, 0x02, 0x04, 0x50, 0xc1, 0x0a, 0xf8, 0x05,
   0x0e, 0x98, 0x7a, 0x85, 0xfc, 0x86, 0xfa, 0x41, 0x7b, 0x00, 0xfe, 0xd4,
   0xa5, 0x08, 0xbb, 0xe1, 0x46, 0xf0, 0x13, 0x6a, 0xf4, 0x0f, 0x21, 0x04,
   0x52, 0x05, 0x52, 0xbf, 0x6a, 0x97, 0x96, 0x24, 0x56, 0x28, 0xd1, 0x2a,
   0xb0, 0x8a, 0x6e, 0x55, 0x55, 0x70, 0x0f, 0x62, 0x6f, 0xaa, 0x9f, 0xd2,
   0x86, 0xd0, 0xd1, 0x2a, 0x08, 0x09, 0x20, 0xa0, 0xc8, 0x0d, 0xbc, 0x45,
   0x27, 0x01, 0x7d, 0x12, 0xbc, 0x47, 0xed, 0x20, 0xb5, 0x00, 0x7f, 0xba,
   0xa3, 0x14, 0xba, 0xe0, 0x45, 0x68, 0x53, 0x74, 0x64, 0x5f, 0xa5, 0x00,
   0x0a, 0x05, 0xc5, 0x9b, 0xe6, 0x97, 0x85, 0xa4, 0x2e, 0x41, 0xef, 0x12,
   0xbe, 0xca, 0x1f, 0xaa, 0x2d, 0xd9, 0x02, 0x81, 0x6f, 0x5a, 0x03, 0xfa,
   0x81, 0x32, 0x68, 0x35, 0x00, 0x0a, 0x40, 0x28, 0x50, 0x37, 0x6c, 0xa7,
   0x13, 0x08, 0x3b, 0x14, 0xbc, 0x41, 0xf4, 0x90, 0x5b, 0x84, 0x36, 0xb4,
   0x2b, 0x92, 0x5a, 0xf0, 0x56, 0x99, 0x15, 0x28, 0xd1, 0xdf, 0xaa, 0x00,
   0x15, 0x85, 0x84, 0x4d, 0xc7, 0x8d, 0x41, 0x45, 0x2f, 0x81, 0x6a, 0x91,
   0x2e, 0xc5, 0x16, 0xd1, 0x3d, 0xfd, 0x92, 0xa0, 0x77, 0xda, 0x03, 0x70,
   0x43, 0xba, 0x44, 0xbb, 0x00, 0x0a, 0x82, 0x50, 0xd1, 0x1e, 0xeb, 0x66,
   0x29, 0xa0, 0x9d, 0x54, 0xf6, 0x08, 0x7e, 0x60, 0x4f, 0xc2, 0x4f, 0xd4,
   0x41, 0x8a, 0x9f, 0x68, 0xa9, 0xdc, 0x29, 0x11, 0x92, 0x6d, 0x55, 0x01,
   0x58, 0x02, 0xc4, 0x9b, 0xa1, 0xeb, 0x84, 0x8a, 0x1b, 0x02, 0x5f, 0xa5,
   0x2a, 0xe9, 0x2d, 0x68, 0x1b, 0xbd, 0x15, 0xa0, 0x3a, 0xfa, 0x05, 0xfe,
   0x80, 0x9c, 0x40, 0xf7, 0x01, 0x14, 0x00, 0x28, 0x51, 0xd7, 0xeb, 0xd6,
   0x50, 0x50, 0x57, 0xa8, 0xfa, 0x08, 0x3f, 0xa2, 0x83, 0xb0, 0x5e, 0x74,
   0x41, 0xc5, 0x57, 0x54, 0xa1, 0xb6, 0x2a, 0x0c, 0x0a, 0xbd, 0x55, 0x01,
   0x53, 0x85, 0x84, 0x5d, 0x61, 0x7f, 0x05, 0x85, 0x0d, 0x13, 0x6f, 0x42,
   0xab, 0xec, 0x2e, 0xe5, 0x0b, 0xee, 0x15, 0x52, 0x1d, 0xfd, 0x09, 0xee,
   0x00, 0xad, 0x24, 0x6e, 0x03, 0x08, 0x08, 0x28, 0xd2, 0xde, 0xa8, 0x2b,
   0x28, 0xe0, 0x4f, 0x85, 0xbb, 0x28, 0x5f, 0x74, 0x05, 0x58, 0x5d, 0xbb,
   0x80, 0xc8, 0x5e, 0xac, 0x50, 0x5b, 0x55, 0x06, 0x90, 0xf4, 0x2b, 0x05,
   0x44, 0x81, 0x48, 0x6b, 0xe5, 0x3e, 0x81, 0x6a, 0x25, 0x93, 0x2e, 0x82,
   0x15, 0xd7, 0xa7, 0xde, 0x87, 0xed, 0x2a, 0xe4, 0x0b, 0x75, 0x8a, 0x7d,
   0x80, 0xa6, 0x45, 0x58, 0x93, 0x00, 0x92, 0x14, 0x82, 0x7f, 0xa0, 0x55,
   0x2a, 0xc0, 0x97, 0xc1, 0x3d, 0xa8, 0x5f, 0xb2, 0x0b, 0xa4, 0x8e, 0xdd,
   0x80, 0xd2, 0x4e, 0xde, 0xa0, 0x75, 0x2a, 0x91, 0x13, 0xf5, 0x26, 0x0a,
   0x20, 0xa2, 0xc4, 0xad, 0xea, 0x1f, 0x80, 0xaa, 0xc5, 0x94, 0x97, 0x82,
   0x0d, 0xee, 0x92, 0xde, 0xeb, 0xf4, 0x54, 0xb0, 0x95, 0x74, 0xc5, 0x5e,
   0x91, 0x43, 0x45, 0xb0, 0x83, 0x00, 0x08, 0x10, 0xb0, 0x36, 0xa0, 0xaa,
   0x52, 0xf0, 0xd6, 0xc2, 0x5a, 0xe8, 0x96, 0xb3, 0x45, 0x63, 0x45, 0xb9,
   0x02, 0xe5, 0x23, 0x6e, 0x60, 0x6a, 0x44, 0x95, 0x13, 0xe5, 0x2b, 0x14,
   0xa2, 0x4a, 0x82, 0x9b, 0xe4, 0x07, 0x84, 0xa2, 0x63, 0x68, 0x0f, 0xa3,
   0xcf, 0xd1, 0xa2, 0xe5, 0xb7, 0xdc, 0xa8, 0xb8, 0x8a, 0x36, 0x5a, 0x7e,
   0xd2, 0xc0, 0x86, 0xb0, 0x82, 0x01, 0x14, 0x80, 0xd4, 0x1e, 0x41, 0x55,
   0x29, 0xf4, 0x32, 0xc1, 0x25, 0xe4, 0xaa, 0xf8, 0x97, 0xd3, 0x62, 0xf8,
   0x04, 0xda, 0x01, 0xbd, 0xb0, 0x9a, 0x60, 0x85, 0x57, 0xf4, 0x15, 0x12,
   0x21, 0x55, 0x80, 0x4d, 0xd4, 0x0b, 0x02, 0xb1, 0x6b, 0x6a, 0x8f, 0xa0,
   0xef, 0x52, 0xeb, 0xa4, 0x5f, 0xaa, 0x29, 0xfc, 0x54, 0x5a, 0x3d, 0x6e,
   0x58, 0xd0, 0x8d, 0x52, 0x41, 0x04, 0x88, 0x00, 0x95, 0x07, 0xe2, 0x96,
   0xa0, 0x70, 0x1d, 0xe0, 0x46, 0xea, 0x75, 0xf0, 0x7f, 0xf0, 0x3a, 0xf1,
   0x81, 0x6e, 0x02, 0x6f, 0x94, 0x7a, 0x36, 0xa5, 0x16, 0xf0, 0x94, 0x00,
   0x22, 0x4a, 0xc2, 0x56, 0xc9, 0x41, 0x0a, 0xea, 0x97, 0xb2, 0x13, 0xa0,
   0x1d, 0xa9, 0xaa, 0x54, 0x07, 0x54, 0x15, 0x1b, 0xa8, 0xbe, 0x0f, 0xae,
   0x1f, 0xd2, 0x5f, 0x5d, 0x01, 0x0a, 0x44, 0x90, 0x88, 0x03, 0x22, 0x09,
   0x54, 0x54, 0x45, 0xe4, 0xa2, 0x6a, 0x2f, 0xe2, 0x3f, 0xf2, 0x4f, 0xa1,
   0xe3, 0xa7, 0x12, 0xea, 0x42, 0xf6, 0x45, 0x88, 0x3a, 0x34, 0xb4, 0x08,
   0x11, 0x25, 0x91, 0xaa, 0xc8, 0x45, 0x01, 0xf1, 0x17, 0xb1, 0x0b, 0xd0,
   0x8b, 0xd0, 0x8a, 0xa0, 0x22, 0x48, 0x5f, 0x15, 0x84, 0xfc, 0xab, 0x6c,
   0x13, 0x01, 0xf7, 0x5f, 0x01, 0x02, 0x88, 0x00, 0x24, 0x11, 0xe2, 0x20,
   0xa4, 0xa8, 0x40, 0x08, 0x50, 0x45, 0x25, 0x0a, 0x27, 0xea, 0x95, 0x82,
   0xfc, 0x40, 0x41, 0xa0, 0x00, 0xb8, 0x89, 0x54, 0xe8, 0x03, 0xa8, 0x08,
   0x22, 0xaa, 0x80, 0x44, 0x08, 0x94, 0x08, 0x02, 0x8a, 0x44, 0x02, 0x92,
   0x10, 0xa1, 0x90, 0x00, 0x00, 0x29, 0x02, 0x15, 0x12, 0x15, 0x14, 0x01,
   0x24, 0x02, 0x02, 0xa8, 0x04, 0x02, 0x44, 0x00, 0x2a, 0x91, 0x22, 0x21,
   0x51, 0x54, 0x10, 0x91, 0xa4, 0x20, 0x42, 0x08, 0x00, 0x95, 0x2a, 0x48,
   0x10, 0x20, 0x49, 0x40, 0xa2, 0x54, 0x41, 0x51, 0x29, 0x02, 0xa1, 0x14,
   0x90, 0xaa, 0x40, 0x02, 0x88, 0x08, 0x84, 0x02, 0x45, 0x24, 0x48, 0x84,
   0x88, 0x52, 0x55, 0x20, 0x80, 0x82, 0x42, 0x45, 0x10, 0x15, 0x09, 0x02,
   0x14, 0x04, 0x42, 0x44, 0x0a, 0x01, 0x05, 0x04, 0x15, 0xa8, 0x12, 0xa2,
   0x22, 0xa8, 0x10, 0x89, 0x12, 0x2a, 0x24, 0x04, 0x02, 0x14, 0x55, 0x28,
   0x10, 0x10, 0x85, 0x80, 0xa0, 0x48, 0x81, 0x50, 0x10, 0x21, 0x20, 0x08,
   0xa8, 0x22, 0x40, 0x01, 0x48, 0x08, 0x88, 0x44, 0x22, 0x04, 0x00, 0x00,
   0x00, 0xf8, 0xff, 0xef, 0xfb, 0xf7, 0xff, 0xff, 0xff, 0xff, 0x7e, 0xf7,
   0xfe, 0xff, 0xff, 0xff, 0xff, 0x1f, 0x02, 0x90, 0x0a, 0xaa, 0x22, 0x53,
   0x25, 0x11, 0x44, 0x01, 0x00, 0x00, 0x00, 0xfc, 0xfa, 0xfb, 0xae, 0xdf,
   0xef, 0x57, 0x6d, 0xbf, 0xef, 0xbf, 0x7b, 0xd7, 0x6f, 0xdd, 0xbf, 0x15,
   0x54, 0x4a, 0xa4, 0x00, 0x00, 0x00, 0x00, 0x80, 0x12, 0x0a, 0x00, 0x00,
   0x00, 0xa8, 0x5f, 0xbf, 0xfb, 0xba, 0x5a, 0xfd, 0xdb, 0xea, 0xdd, 0xee,
   0xef, 0xbe, 0xda, 0xbb, 0xea, 0x1f, 0x00, 0x21, 0x11, 0x15, 0x00, 0x00,
   0x00, 0x40, 0xa8, 0x80, 0x94, 0x92, 0xaa, 0xf4, 0xf5, 0xd5, 0x6f, 0xef,
   0xff, 0xbf, 0xff, 0xff, 0x77, 0x7b, 0xbd, 0xef, 0x77, 0xff, 0x7f, 0x1b,
   0x55, 0x08, 0x88, 0x00, 0x00, 0x00, 0x00, 0x00, 0x01, 0x0a, 0x21, 0x44,
   0x00, 0x59, 0xdf, 0x7e, 0xfd, 0xbd, 0x6d, 0xd5, 0xaa, 0x55, 0xdd, 0xdd,
   0xf7, 0xba, 0xfd, 0x65, 0xd5, 0x0d, 0x00, 0x43, 0x25, 0x02, 0x00, 0x00,
   0x00, 0x00, 0x4a, 0x00, 0x8a, 0x88, 0xaa, 0xfa, 0xeb, 0xeb, 0x57, 0xeb,
   0xb6, 0xff, 0xff, 0xfe, 0xf7, 0x77, 0xed, 0xdf, 0xae, 0xdf, 0x7f, 0x1f,
   0x6a, 0x20, 0x80, 0x00, 0x00, 0x00, 0x00, 0x80, 0x10, 0x05, 0x40, 0x22,
   0x00, 0xb4, 0xfe, 0x5e, 0xfd, 0xff, 0xfd, 0x6a, 0xbb, 0xad, 0x7e, 0xed,
   0x3f, 0xf5, 0xfb, 0xfa, 0xda, 0x16, 0x80, 0x8c, 0x2a, 0x00, 0x00, 0x00,
   0x00, 0x40, 0x44, 0x00, 0x15, 0x11, 0x95, 0xf8, 0x5b, 0xfb, 0x6f, 0x5d,
   0xbf, 0xdf, 0xdd, 0xf7, 0xab, 0xbf, 0xee, 0xbf, 0xae, 0xbf, 0xef, 0x1b,
   0x15, 0x22, 0x80, 0x00, 0x00, 0x00, 0x00, 0x00, 0x91, 0x8a, 0xa0, 0x44,
   0x20, 0xaa, 0xef, 0xef, 0xba, 0xf7, 0xeb, 0x6e, 0xf7, 0x5d, 0xff, 0xf6,
   0x75, 0xeb, 0xff, 0xea, 0x76, 0x1f, 0x00, 0x48, 0x55, 0x00, 0x00, 0x00,
   0x00, 0x40, 0x02, 0x00, 0x09, 0x08, 0x8d, 0x7c, 0xbd, 0xb6, 0xf7, 0x6e,
   0xdf, 0xfd, 0x5b, 0xff, 0xd6, 0x6d, 0xff, 0x7e, 0xab, 0xdf, 0xdd, 0x15,
   0xd4, 0x12, 0x80, 0x00, 0x00, 0x00, 0x00, 0x00, 0xa8, 0x0a, 0x42, 0x52,
   0x20, 0xd1, 0xf6, 0x7d, 0xdd, 0xdd, 0xb6, 0xab, 0xfe, 0xeb, 0x7d, 0xdf,
   0xd7, 0xdb, 0xfd, 0x75, 0xfb, 0x1f, 0x02, 0x40, 0x2a, 0x00, 0x00, 0x00,
   0x00, 0x00, 0x05, 0x00, 0x11, 0xa5, 0x92, 0xf8, 0xdd, 0xd7, 0xef, 0x77,
   0xfb, 0xfe, 0x6d, 0x7d, 0xb7, 0x7b, 0x7d, 0xaf, 0x6f, 0xdf, 0x5f, 0x1b,
   0xa8, 0x0a, 0x81, 0x00, 0x00, 0x00, 0x00, 0x40, 0xa8, 0x84, 0xa4, 0xbb,
   0xff, 0x5f, 0x77, 0x7f, 0x35, 0xfd, 0xdf, 0xbb, 0xb7, 0xaf, 0xdb, 0xd7,
   0xb7, 0xfd, 0xba, 0x7d, 0xf7, 0x0e, 0x02, 0x50, 0x14, 0x00, 0x00, 0x00,
   0x00, 0x80, 0x02, 0x01, 0x08, 0xef, 0xad, 0xf6, 0xef, 0xda, 0xff, 0xd7,
   0xea, 0xf7, 0xfe, 0xfa, 0xfe, 0xfe, 0xee, 0x77, 0xef, 0xd7, 0xed, 0x15,
   0xa8, 0x04, 0x41, 0x00, 0x00, 0x00, 0x00, 0x00, 0x50, 0x8c, 0xa2, 0x7a,
   0xff, 0xdf, 0xba, 0x77, 0xdb, 0xbd, 0x5f, 0xdd, 0xad, 0xaf, 0xaf, 0xb5,
   0xbb, 0xda, 0x7d, 0x7d, 0x5b, 0x1f, 0x05, 0x52, 0x94, 0x00, 0x00, 0x00,
   0x80, 0x90, 0x0a, 0x02, 0x08, 0xbf, 0xab, 0x75, 0xdf, 0xfe, 0x6e, 0xef,
   0xfa, 0x6f, 0xf7, 0xfb, 0xf6, 0xde, 0xed, 0x6f, 0xaf, 0xef, 0xff, 0x1d,
   0x50, 0x88, 0x48, 0x00, 0x90, 0xaa, 0x4a, 0x42, 0x50, 0x41, 0xa1, 0xd5,
   0xfd, 0xde, 0xeb, 0xdb, 0xff, 0xfb, 0x6f, 0xfd, 0xdb, 0x6e, 0xbb, 0x77,
   0xbf, 0xfb, 0xfb, 0xba, 0x6a, 0x17, 0x82, 0x22, 0x02, 0x00, 0x20, 0x00,
   0x10, 0x94, 0x04, 0x08, 0x0a, 0x7f, 0xd7, 0xfb, 0xbe, 0xb6, 0x6d, 0xad,
   0xdd, 0x5b, 0x7f, 0xfb, 0xff, 0xfd, 0x75, 0xbd, 0xb6, 0xef, 0xdf, 0x1b,
   0x28, 0x08, 0x51, 0x01, 0x48, 0x55, 0x25, 0x01, 0xa2, 0x84, 0x50, 0xd5,
   0x7e, 0x6f, 0xf7, 0xfd, 0xdb, 0x7f, 0xb7, 0xf6, 0xd5, 0x5e, 0x55, 0x57,
   0xef, 0xef, 0xef, 0x7b, 0xfb, 0x16, 0x05, 0xa5, 0x04, 0x00, 0x20, 0x20,
   0x80, 0x54, 0x11, 0x02, 0x05, 0xff, 0xdb, 0xb6, 0xbd, 0xaf, 0x7e, 0xed,
   0xfb, 0x5f, 0xff, 0xeb, 0xff, 0xfb, 0xdb, 0x76, 0x7d, 0xdd, 0xbe, 0x1f,
   0xb0, 0x10, 0x52, 0x01, 0x80, 0x8a, 0x2a, 0x02, 0x44, 0x01, 0x50, 0xd5,
   0xee, 0xfd, 0xf7, 0xfd, 0xed, 0xb7, 0xdd, 0xf6, 0x6d, 0xff, 0x56, 0x6f,
   0x7f, 0xdf, 0xab, 0xf7, 0xeb, 0x1a, 0x02, 0x82, 0x20, 0x06, 0x00, 0x00,
   0x00, 0x50, 0x0a, 0x84, 0x84, 0xbf, 0x7f, 0xdf, 0xae, 0x57, 0xb7, 0x7d,
   0xef, 0xbb, 0xdb, 0x5b, 0xff, 0xda, 0xea, 0xb5, 0xff, 0xad, 0xdf, 0x1f,
   0x88, 0x54, 0x8a, 0x00, 0x00, 0x00, 0x00, 0x80, 0x50, 0x09, 0x29, 0xf6,
   0xd5, 0xb6, 0x7b, 0xfb, 0x7f, 0xef, 0xfe, 0xee, 0xff, 0xfe, 0xeb, 0xff,
   0xbf, 0x7f, 0xdd, 0xff, 0xba, 0x16, 0x52, 0x00, 0x10, 0x00, 0x00, 0x00,
   0x00, 0x00, 0x82, 0x00, 0x82, 0xbd, 0xfe, 0xeb, 0xee, 0x9d, 0x80, 0x25,
   0x13, 0x2b, 0x20, 0x81, 0x18, 0x0a, 0xa9, 0x92, 0x45, 0x20, 0x4d, 0x0b,
   0x04, 0xa5, 0x42, 0x00, 0x00, 0x00, 0x00, 0x80, 0x54, 0x0a, 0x11, 0xf7,
   0xdb, 0xfe, 0x3b, 0x00, 0x2a, 0x90, 0x80, 0x00, 0x0a, 0x0a, 0x44, 0x20,
   0x04, 0x40, 0x10, 0x12, 0x20, 0x00, 0x50, 0x08, 0x88, 0x00, 0x00, 0x00,
   0x00, 0x00, 0x00, 0x00, 0x44, 0xaf, 0xb6, 0xaf, 0x06, 0xa0, 0x40, 0x04,
   0x2a, 0x54, 0xa1, 0xd4, 0x92, 0x4a, 0x51, 0x0a, 0x92, 0x46, 0x45, 0x0a,
   0x85, 0xa2, 0x22, 0x00, 0x00, 0x00, 0x00, 0x40, 0x25, 0x05, 0x11, 0xfb,
   0xef, 0xfa, 0x89, 0xff, 0xff, 0xff, 0xff, 0xfb, 0xff, 0xbb, 0xff, 0xff,
   0xff, 0xff, 0xff, 0xfb, 0xff, 0x1d, 0x10, 0x10, 0x14, 0x01, 0x00, 0x00,
   0x00, 0x00, 0x50, 0x88, 0x84, 0xbd, 0xbd, 0x6f, 0xe2, 0xae, 0xbe, 0xf7,
   0xd5, 0xdf, 0xbe, 0xfe, 0xaa, 0xb5, 0xaa, 0xfb, 0xed, 0xbe, 0xb6, 0x17,
   0xaa, 0x4a, 0x41, 0x00, 0x00, 0x00, 0x00, 0x40, 0x85, 0x02, 0x52, 0xd7,
   0xf6, 0x1e, 0xfc, 0xfb, 0xdb, 0xda, 0x7e, 0x6d, 0xeb, 0xab, 0xff, 0xde,
   0x7f, 0x6d, 0xb7, 0xeb, 0xdb, 0x1f, 0x00, 0x01, 0x8a, 0x00, 0x00, 0x00,
   0x00, 0x00, 0x10, 0x84, 0x00, 0xfd, 0xbf, 0xab, 0x7e, 0xdf, 0xfe, 0x7f,
   0xeb, 0xff, 0xdf, 0xff, 0xb5, 0xfb, 0xd6, 0xdf, 0xfe, 0xbe, 0x7e, 0x0d,
   0x2a, 0xa8, 0x20, 0x00, 0x00, 0x00, 0x00, 0x40, 0xa5, 0x30, 0x5a, 0xaf,
   0xed, 0x86, 0xd5, 0xf6, 0xaf, 0xda, 0xdf, 0xaa, 0x76, 0x6d, 0xdf, 0xaf,
   0xff, 0xf6, 0xab, 0xed, 0xdf, 0x1b, 0x00, 0x05, 0x94, 0x00, 0x00, 0x00,
   0x00, 0x00, 0x00, 0xd5, 0xff, 0xf6, 0xde, 0xc3, 0xbf, 0x5b, 0xf5, 0x6f,
   0x75, 0xff, 0xdd, 0xf7, 0x76, 0xf5, 0x5a, 0xdb, 0xfe, 0xf7, 0xf2, 0x1e,
   0x55, 0x50, 0x41, 0x00, 0x00, 0x00, 0x00, 0x40, 0x15, 0xf0, 0xd5, 0xdb,
   0x7b, 0x79, 0xf5, 0xff, 0xbf, 0xfd, 0xdf, 0xf5, 0x77, 0x5f, 0xff, 0xdf,
   0xef, 0xbf, 0xb7, 0xbe, 0x6f, 0x17, 0x80, 0x82, 0x14, 0x01, 0x00, 0x00,
   0x00, 0x00, 0xa2, 0xb2, 0x6f, 0x7f, 0xf7, 0xf0, 0xdf, 0x5a, 0x6b, 0x57,
   0xfb, 0x5f, 0xfb, 0xf4, 0xab, 0x7e, 0xfd, 0xf6, 0xde, 0x6b, 0xfd, 0x0d,
   0x2a, 0x28, 0x22, 0x00, 0x00, 0x00, 0x00, 0x80, 0x10, 0xe4, 0xfa, 0xd5,
   0x5d, 0xbc, 0x76, 0xf7, 0xfe, 0xfe, 0x5f, 0xeb, 0xbe, 0xdf, 0xfe, 0xd7,
   0xb7, 0xad, 0x75, 0xdf, 0xaf, 0x1b, 0x84, 0x92, 0x90, 0x54, 0x55, 0x55,
   0xab, 0x4a, 0x88, 0x70, 0xdf, 0x7e, 0x6f, 0xee, 0xdb, 0xdd, 0xdb, 0xdb,
   0xea, 0x7e, 0xeb, 0x77, 0xab, 0xfa, 0xee, 0xff, 0xff, 0xfd, 0x7d, 0x1f,
   0x50, 0x08, 0x0a, 0x21, 0x20, 0x22, 0x10, 0x10, 0x25, 0xb5, 0x6b, 0xd7,
   0x35, 0xb5, 0xff, 0x77, 0xef, 0x6e, 0xbf, 0xdb, 0xdf, 0xba, 0xfd, 0x6f,
   0xbb, 0xb6, 0xd5, 0xd7, 0xb6, 0x0d, 0x02, 0xa1, 0x20, 0x8a, 0x0a, 0x00,
   0x41, 0x45, 0x42, 0xf8, 0xfe, 0xfd, 0x1e, 0xdf, 0xaa, 0xfe, 0xba, 0xfb,
   0xfb, 0x6d, 0xbb, 0xef, 0x77, 0xdb, 0xef, 0xed, 0xbe, 0xba, 0xef, 0x1f,
   0x50, 0x08, 0x8a, 0x20, 0x00, 0x40, 0x00, 0x20, 0x10, 0xa2, 0xdd, 0xbf,
   0x5b, 0xfb, 0xff, 0xef, 0xff, 0xff, 0x57, 0xff, 0xef, 0xdb, 0xdf, 0xfd,
   0x7a, 0xff, 0xf7, 0xef, 0xfa, 0x1a, 0x8d, 0x92, 0x40, 0x14, 0x01, 0x00,
   0x01, 0x8a, 0x4a, 0xf1, 0xeb, 0x6a, 0x8f, 0xaf, 0xff, 0xff, 0xff, 0xff,
   0xff, 0xab, 0xba, 0x7e, 0x76, 0xb7, 0xdf, 0x55, 0xdb, 0x7a, 0x5f, 0x17,
   0x40, 0x44, 0x2a, 0x41, 0x00, 0x00, 0x00, 0x10, 0x04, 0x74, 0xbf, 0xbf,
   0x4f, 0x7d, 0xff, 0xff, 0xff, 0xff, 0xac, 0xfe, 0xdf, 0xed, 0xdb, 0x7b,
   0x75, 0xff, 0x7d, 0xff, 0xeb, 0x0f, 0x0a, 0x28, 0x00, 0x12, 0x00, 0x80,
   0x00, 0xa4, 0x50, 0xd9, 0x77, 0xf5, 0xc5, 0xdb, 0xfe, 0x6e, 0xbb, 0x75,
   0xf4, 0xad, 0xf6, 0xbf, 0xff, 0xee, 0xef, 0xab, 0xee, 0x55, 0xbf, 0x1d,
   0x50, 0x83, 0xaa, 0x04, 0x00, 0x00, 0x01, 0x00, 0x0a, 0x70, 0xdd, 0xef,
   0x66, 0xf7, 0xbf, 0xdb, 0x6f, 0x3f, 0xbe, 0xfb, 0xbd, 0xea, 0xaa, 0xdd,
   0xda, 0xfe, 0xbd, 0xff, 0x7b, 0x1b, 0x02, 0x10, 0x00, 0x00, 0x00, 0x40,
   0x00, 0xa0, 0xa0, 0xd2, 0x77, 0xbb, 0xd3, 0xbf, 0xfd, 0x7f, 0xfd, 0xaf,
   0xf6, 0x6e, 0xd7, 0xbf, 0xff, 0x77, 0x7f, 0xbb, 0xd7, 0x6e, 0xdd, 0x17,
   0x28, 0x45, 0x55, 0x05, 0x00, 0x00, 0x01, 0x10, 0x05, 0xf4, 0xbe, 0xdd,
   0x66, 0xd5, 0x7e, 0xea, 0x57, 0x15, 0xdf, 0xff, 0x7b, 0xd5, 0xb5, 0xde,
   0xed, 0xed, 0x7e, 0xbb, 0xf7, 0x1e, 0x45, 0x08, 0x08, 0x00, 0x00, 0x00,
   0x00, 0x40, 0xa8, 0xb0, 0xed, 0xf7, 0xd3, 0xff, 0xfb, 0xbf, 0xfd, 0x9f,
   0x75, 0xab, 0xee, 0x7f, 0xef, 0x7d, 0xbf, 0xdf, 0xf7, 0xef, 0x5e, 0x1b,
   0x10, 0xa1, 0xa2, 0x02, 0x00, 0x80, 0x00, 0x00, 0x02, 0xf5, 0xdb, 0x5d,
   0xf3, 0x5a, 0xf7, 0x6d, 0x6f, 0x4d, 0xef, 0xfe, 0x7b, 0xeb, 0x7d, 0xd7,
   0x6b, 0xbb, 0xad, 0xfa, 0xf5, 0x0e, 0x84, 0x14, 0x09, 0x00, 0x00, 0x00,
   0x00, 0x40, 0x51, 0xd0, 0xbe, 0xf6, 0xb2, 0xef, 0xfd, 0xf7, 0xf5, 0xa7,
   0xbb, 0xb7, 0xde, 0x7f, 0xd7, 0x7b, 0xfd, 0xee, 0xfe, 0x57, 0xdf, 0x1b,
   0x52, 0x42, 0xa0, 0x00, 0x00, 0x80, 0x00, 0x00, 0x04, 0xb5, 0xdb, 0xbf,
   0xd3, 0x76, 0xd7, 0xdd, 0x5e, 0xc5, 0xdd, 0xda, 0x7b, 0xad, 0x7b, 0xdd,
   0xaf, 0xfb, 0x5b, 0xfb, 0x7d, 0x0f, 0x20, 0x10, 0x0a, 0x01, 0x00, 0x00,
   0x00, 0x80, 0xa8, 0xf0, 0xf6, 0xed, 0xf1, 0xfd, 0xfd, 0xbf, 0xf7, 0x73,
   0xff, 0x7f, 0xef, 0xf6, 0xdf, 0xef, 0xfd, 0x5e, 0xf7, 0x5e, 0xd7, 0x1d,
   0x0a, 0x45, 0x51, 0x00, 0x00, 0x00, 0x05, 0x00, 0x02, 0xb2, 0xff, 0x7e,
   0xb5, 0x5f, 0xf7, 0xef, 0xad, 0xd3, 0xb5, 0xed, 0xbb, 0xbf, 0x76, 0x7b,
   0xd7, 0xf7, 0xee, 0xf7, 0xfb, 0x17, 0x40, 0x20, 0x04, 0x00, 0x50, 0x80,
   0x00, 0x80, 0xa8, 0xd0, 0x5b, 0xd7, 0xf3, 0xf5, 0xbd, 0x77, 0xff, 0xf1,
   0xef, 0xde, 0xde, 0xed, 0xde, 0xde, 0xfd, 0xda, 0xbd, 0xbe, 0x5d, 0x1d,
   0x4a, 0x95, 0x50, 0x00, 0x44, 0x40, 0x0a, 0x00, 0x02, 0x7a, 0xed, 0x7b,
   0x59, 0x5f, 0xd7, 0xbf, 0x55, 0x54, 0xbb, 0x7b, 0xeb, 0xf6, 0xeb, 0x7b,
   0x57, 0xbf, 0xd7, 0xdb, 0xee, 0x0f, 0x10, 0x08, 0x85, 0x00, 0x08, 0x80,
   0x10, 0x80, 0x54, 0xf1, 0x5f, 0xdd, 0xf3, 0xf6, 0xfd, 0xef, 0xff, 0xf9,
   0x7e, 0xf7, 0x7f, 0x5f, 0x7d, 0xd7, 0xfd, 0xfb, 0x7e, 0xf7, 0x7b, 0x15,
   0x85, 0x42, 0x28, 0x00, 0x22, 0x00, 0x04, 0x00, 0x01, 0xa4, 0xf5, 0xf7,
   0xb2, 0xbf, 0xb7, 0xde, 0x5a, 0xdc, 0xd7, 0x5d, 0xd5, 0xf5, 0xdb, 0x7f,
   0xb7, 0xae, 0xf5, 0x6d, 0xdf, 0x1f, 0x50, 0x20, 0x02, 0x00, 0x14, 0x40,
   0x02, 0x00, 0x28, 0xf1, 0xfe, 0xbd, 0xe3, 0xea, 0x6e, 0xff, 0x7f, 0xb5,
   0xfa, 0xef, 0xff, 0xbf, 0xff, 0xea, 0xdd, 0xf7, 0xdf, 0xbe, 0x6b, 0x15,
   0x02, 0x95, 0xd0, 0x00, 0x40, 0x00, 0x09, 0x80, 0x84, 0x74, 0xab, 0xd6,
   0xb2, 0xdf, 0xfb, 0xbb, 0x36, 0xde, 0xaf, 0xba, 0xae, 0x7a, 0x57, 0xbf,
   0xf7, 0x5e, 0x7b, 0xf7, 0xfe, 0x1f, 0x54, 0x22, 0x0a, 0x00, 0x28, 0x00,
   0x02, 0x00, 0x51, 0xb0, 0xff, 0xff, 0xf3, 0x76, 0x5f, 0xff, 0x2f, 0xfd,
   0xfa, 0xf7, 0xf5, 0xef, 0xfe, 0xed, 0xbe, 0xfd, 0xae, 0xaf, 0x5b, 0x0b,
   0x21, 0x88, 0x20, 0x00, 0x00, 0x80, 0x00, 0x40, 0x0a, 0xea, 0xad, 0xed,
   0xa6, 0xdd, 0xf5, 0xfe, 0x19, 0xd7, 0x7f, 0x6d, 0x7f, 0xb5, 0x6b, 0xbb,
   0xed, 0xab, 0xf7, 0xfa, 0xf7, 0x1f, 0x88, 0x04, 0x8a, 0x00, 0x00, 0x00,
   0x00, 0x00, 0x50, 0x71, 0xf7, 0xb6, 0xe7, 0x7b, 0xbf, 0xfb, 0x9e, 0xff,
   0xae, 0xbf, 0xaf, 0xdf, 0xbd, 0xdf, 0xdf, 0xfe, 0xfd, 0x7f, 0xdd, 0x1a,
   0x12, 0xb1, 0x10, 0x00, 0x00, 0x00, 0x00, 0x80, 0x04, 0xb4, 0xdf, 0xdf,
   0xa2, 0xef, 0xf5, 0xed, 0xc7, 0xaa, 0xfb, 0xee, 0xfa, 0x7b, 0xef, 0xed,
   0xfa, 0xd7, 0x57, 0xab, 0x77, 0x0f, 0x44, 0x04, 0xa5, 0x00, 0x00, 0x00,
   0x00, 0x80, 0x92, 0xf0, 0x7a, 0xbb, 0xc7, 0xbe, 0x6f, 0xff, 0x4d, 0x7f,
   0xed, 0xbd, 0xaf, 0xee, 0xbd, 0x7b, 0x6f, 0xbd, 0xfe, 0xfe, 0xbd, 0x1d,
   0x11, 0x41, 0x08, 0x01, 0x00, 0x00, 0x00, 0x00, 0x40, 0xb2, 0xdf, 0xfe,
   0xae, 0x6b, 0xdd, 0xf6, 0xd3, 0xd5, 0x5f, 0xeb, 0xfb, 0x7b, 0xeb, 0xde,
   0xdb, 0xf7, 0xdb, 0x5b, 0xef, 0x17, 0x44, 0x2a, 0x42, 0x00, 0x00, 0x00,
   0x00, 0x60, 0x29, 0xe9, 0xea, 0xd5, 0x8f, 0xfd, 0xf7, 0xdf, 0xe7, 0xff,
   0xf5, 0xdf, 0xae, 0xde, 0xbf, 0xed, 0x7d, 0xbd, 0xee, 0xee, 0xfb, 0x1e,
   0x20, 0x80, 0x90, 0x02, 0x00, 0x00, 0x00, 0x00, 0x02, 0x74, 0x7f, 0x7f,
   0x95, 0x57, 0xdb, 0xfa, 0xb3, 0xb6, 0xbe, 0x7d, 0xfb, 0xdb, 0xda, 0x77,
   0xd7, 0xd7, 0xbb, 0xbb, 0x56, 0x1b, 0x8a, 0x2a, 0x22, 0x04, 0x00, 0x00,
   0x00, 0x50, 0xc8, 0xd0, 0xeb, 0xeb, 0x1f, 0xff, 0x7e, 0xaf, 0xf3, 0xdf,
   0x6f, 0xd7, 0xef, 0xbe, 0xff, 0xde, 0xfd, 0xfe, 0x7e, 0xef, 0xfd, 0x17,
   0x21, 0x81, 0x4c, 0x01, 0x00, 0x00, 0x00, 0x08, 0x12, 0xf5, 0xbe, 0x5e,
   0x7d, 0xaa, 0xd7, 0xfb, 0x5f, 0xb5, 0xdb, 0xfd, 0xba, 0xeb, 0xab, 0xb7,
   0xbb, 0xb5, 0xcb, 0x7a, 0xdf, 0x1d, 0x14, 0x54, 0x00, 0x08, 0x00, 0x00,
   0x00, 0x40, 0x25, 0x60, 0xfb, 0xfb, 0x27, 0xfe, 0xfd, 0x5e, 0xeb, 0xff,
   0x7c, 0xaf, 0xdf, 0x7e, 0xfd, 0xfa, 0xd7, 0xff, 0xfe, 0xaf, 0x77, 0x1f,
   0x42, 0x02, 0x49, 0x25, 0x00, 0x00, 0x00, 0x2a, 0x10, 0xf5, 0xd7, 0x6e,
   0x7d, 0xef, 0xae, 0xeb, 0x7f, 0xfb, 0xf7, 0xfd, 0xfe, 0xd7, 0x6f, 0xaf,
   0xfe, 0x6a, 0xbb, 0xfb, 0xdd, 0x0a, 0x88, 0x28, 0x12, 0x08, 0x00, 0x00,
   0x00, 0x80, 0x42, 0xd8, 0xbe, 0xdb, 0xdf, 0xbf, 0xfb, 0x7e, 0xed, 0x56,
   0x6f, 0xb7, 0x6b, 0x7d, 0xdb, 0xff, 0x6d, 0xdf, 0x6f, 0x5d, 0xbb, 0x17,
   0x22, 0x81, 0x44, 0xa1, 0x00, 0x00, 0x00, 0x55, 0x90, 0x72, 0xeb, 0xfe,
   0xb5, 0xef, 0xbf, 0xd7, 0xbb, 0xef, 0xdb, 0x6d, 0xdb, 0xd7, 0xbe, 0xb5,
   0xfb, 0xb6, 0xfa, 0xf7, 0xee, 0x1e, 0x48, 0x54, 0x20, 0x12, 0x05, 0x00,
   0x90, 0x00, 0x0a, 0xe0, 0xff, 0xad, 0xfe, 0x7e, 0xd5, 0xfd, 0xd6, 0xbd,
   0x7e, 0xff, 0xfd, 0xfe, 0xf7, 0xee, 0xae, 0xfb, 0xd7, 0xfe, 0xf7, 0x1b,
   0x22, 0x01, 0x15, 0x89, 0x10, 0x00, 0x24, 0x4a, 0x44, 0xb9, 0x55, 0xf7,
   0xdb, 0xff, 0x7f, 0xb7, 0xff, 0xf6, 0xdb, 0xb5, 0xaf, 0xab, 0xdd, 0x7b,
   0xfb, 0xdd, 0xbe, 0xab, 0x5b, 0x0d, 0x04, 0x2a, 0x40, 0x20, 0xa4, 0xaa,
   0x40, 0x90, 0x10, 0x72, 0xff, 0xdf, 0x7d, 0xfd, 0xf5, 0xfe, 0x56, 0x6f,
   0x77, 0xef, 0x76, 0x7f, 0xbb, 0xde, 0x5f, 0xbf, 0xf7, 0xff, 0xfe, 0x1f,
   0x91, 0x40, 0x95, 0x0a, 0x09, 0x00, 0x15, 0x25, 0xa5, 0xd0, 0xab, 0x7d,
   0xef, 0xeb, 0xdf, 0xab, 0xfd, 0xfd, 0xed, 0xbe, 0xdd, 0xd5, 0xef, 0xf7,
   0xf5, 0xf7, 0xbd, 0x6c, 0xaf, 0x16, 0x48, 0x14, 0x20, 0x40, 0x02, 0x00,
   0x80, 0x80, 0x40, 0xf4, 0xfe, 0xd6, 0xb7, 0xbe, 0xef, 0xfe, 0xb7, 0x2f,
   0xbf, 0xeb, 0xff, 0xfe, 0xfa, 0x5d, 0xaf, 0xdb, 0xd6, 0xb7, 0xf5, 0x1d,
   0x02, 0x41, 0x09, 0x29, 0x00, 0x00, 0x00, 0x0a, 0x0a, 0x71, 0xbb, 0x7f,
   0xfd, 0xeb, 0x7f, 0x6b, 0x7d, 0xf5, 0xf5, 0x7e, 0x55, 0xab, 0xaf, 0xee,
   0xfd, 0xbe, 0xff, 0xdf, 0xff, 0x0e, 0x54, 0x2a, 0x42, 0x02, 0x00, 0x00,
   0x00, 0x50, 0x50, 0xea, 0x76, 0xdb, 0xdb, 0xbe, 0xfe, 0xff, 0xef, 0xff,
   0xff, 0xdf, 0xff, 0xff, 0xff, 0x7f, 0xff, 0xfb, 0x7d, 0xf7, 0xbb, 0x1f,
   0x81, 0x40, 0x91, 0x08, 0x00, 0x00, 0x00, 0x04, 0x05, 0xd0, 0xdf, 0xb6,
   0x76, 0xef, 0xfb, 0xff, 0xff, 0xff, 0xff, 0xff, 0xff, 0xff, 0xfd, 0xff,
   0xbf, 0xff, 0xff, 0xff, 0xff, 0x1f, 0x24, 0x12, 0x14, 0x04, 0x00, 0x00,
   0x00, 0xa0, 0x48, 0x75, 0xeb, 0xff, 0xdf, 0xdb, 0xd6, 0xff, 0xff, 0xff,
   0xff, 0xff, 0xff, 0xff, 0xff, 0xff, 0xff, 0xef, 0xff, 0xff, 0xff, 0x1f,
   0x88, 0x44, 0x42, 0x01, 0x00, 0x00, 0x00, 0x10, 0x24, 0xf2, 0xbd, 0xe9,
   0x7a, 0xfd, 0x7f, 0x6b, 0xdd, 0x55, 0xad, 0x6a, 0x75, 0x77, 0x57, 0xd5,
   0x75, 0x7f, 0xab, 0xbd, 0xf6, 0x16, 0x51, 0x88, 0x10, 0x00, 0x00, 0x00,
   0x00, 0x40, 0x81, 0xd0, 0xee, 0xdf, 0xd7, 0x6f, 0xed, 0xde, 0x77, 0xff,
   0xdb, 0xff, 0xef, 0xde, 0xfe, 0xbf, 0xdf, 0xd9, 0x7e, 0xeb, 0x5d, 0x1d,
   0x84, 0x12, 0x4a, 0x01, 0x00, 0x00, 0x00, 0x00, 0x28, 0xb4, 0x7b, 0xbb,
   0x7e, 0xbb, 0xdb, 0xf7, 0xbd, 0x57, 0xff, 0x55, 0xbf, 0xf5, 0xab, 0x75,
   0xb5, 0xf7, 0xdb, 0xbf, 0xef, 0x1f, 0x22, 0x48, 0x21, 0x00, 0x00, 0x00,
   0x00, 0x40, 0x05, 0xf1, 0xdf, 0xee, 0xdb, 0xef, 0x7e, 0xbb, 0xee, 0xfa,
   0x6b, 0xff, 0xea, 0xbf, 0x7e, 0xdf, 0xef, 0xbe, 0xee, 0xea, 0xba, 0x0b,
   0x08, 0x01, 0x84, 0x00, 0x00, 0x00, 0x00, 0x00, 0x50, 0xb2, 0xf6, 0xbb,
   0xee, 0xf4, 0xab, 0xdf, 0xf7, 0x5f, 0xbf, 0xad, 0xbf, 0xea, 0xdb, 0xfd,
   0x7d, 0xeb, 0xbb, 0xff, 0xef, 0x1d, 0x22, 0xaa, 0x08, 0x00, 0x00, 0x00,
   0x00, 0x80, 0x82, 0xe8, 0x5d, 0xff, 0xbd, 0x5f, 0xff, 0x7a, 0xbd, 0xfa,
   0xea, 0xfb, 0xf5, 0xbf, 0xee, 0x57, 0xf7, 0x7f, 0xdf, 0x56, 0xbb, 0x16,
   0x91, 0x00, 0xb1, 0x00, 0x00, 0x00, 0x00, 0x00, 0x2c, 0xb2, 0xfb, 0xab,
   0x77, 0xf7, 0xd5, 0xd7, 0xd7, 0xaf, 0xff, 0x6e, 0xbf, 0xed, 0x7b, 0xfd,
   0xae, 0xd5, 0xf5, 0xfd, 0xfd, 0x1f, 0x48, 0x54, 0x04, 0x00, 0x00, 0x00,
   0x00, 0x00, 0x81, 0xf4, 0x5f, 0xfd, 0xed, 0x5d, 0x7f, 0xfd, 0xfe, 0xfa,
   0x56, 0xbf, 0xeb, 0xf6, 0xde, 0xaf, 0xfd, 0x7e, 0x6f, 0x57, 0x57, 0x0b,
   0x22, 0x81, 0xa2, 0x00, 0x00, 0x02, 0x00, 0x80, 0x28, 0x50, 0xf5, 0x57,
   0xbf, 0xf7, 0xdd, 0x57, 0x6b, 0xaf, 0xfb, 0xf5, 0xde, 0xdf, 0x7b, 0xfb,
   0xb7, 0xdb, 0xfb, 0xff, 0xef, 0x1d, 0x04, 0x2a, 0x08, 0x00, 0x90, 0x54,
   0x05, 0x00, 0x82, 0xf2, 0xaf, 0xfd, 0x75, 0xbf, 0x6b, 0xfd, 0xdf, 0xff,
   0xae, 0xdf, 0xbd, 0xba, 0xee, 0xd6, 0xdd, 0x7f, 0x5f, 0xd5, 0xfa, 0x16,
   0xa9, 0x80, 0xa2, 0x00, 0x40, 0x00, 0x08, 0x80, 0x24, 0xb1, 0x7d, 0xdf,
   0xdf, 0xed, 0xfe, 0xdf, 0xf6, 0xaa, 0x7f, 0x75, 0xeb, 0xef, 0xbd, 0x7d,
   0xf7, 0xd6, 0xf5, 0xbf, 0xbf, 0x1f, 0x00, 0x14, 0x10, 0x00, 0x28, 0xaa,
   0x12, 0x00, 0x10, 0xf4, 0xf6, 0x77, 0x7d, 0xbf, 0x7b, 0x77, 0xbb, 0xfd,
   0xd6, 0xdf, 0xbf, 0xfd, 0xef, 0xdf, 0xbb, 0xfb, 0xbe, 0xf5, 0xd5, 0x16,
   0x4a, 0x41, 0x42, 0x00, 0x84, 0x00, 0x00, 0x40, 0x45, 0xd1, 0x5f, 0xdd,
   0xb7, 0xf5, 0xae, 0xdd, 0xed, 0xef, 0xfb, 0x6d, 0xdd, 0x57, 0xbb, 0x6a,
   0xdd, 0xaf, 0xd7, 0x5f, 0xff, 0x1b, 0x94, 0x94, 0x94, 0x00, 0x10, 0x55,
   0x05, 0x80, 0x10, 0x74, 0xfb, 0xb7, 0xed, 0xdb, 0xff, 0x7b, 0xbf, 0xb6,
   0x5f, 0xfb, 0x77, 0xbd, 0xee, 0xff, 0x77, 0x7d, 0x7d, 0xfd, 0x6d, 0x0f,
   0x00, 0x22, 0x02, 0x02, 0xa0, 0x88, 0x08, 0x20, 0x4a, 0xe9, 0xae, 0xfa,
   0xde, 0x7e, 0xd5, 0xee, 0xfd, 0x6f, 0xf5, 0xb6, 0xdd, 0xef, 0x7d, 0xb7,
   0xfe, 0xee, 0xaf, 0x6f, 0xbf, 0x1d, 0xa2, 0x08, 0x51, 0x01, 0x00, 0x02,
   0x00, 0x00, 0x20, 0xb0, 0xfb, 0x6f, 0x77, 0xb7, 0x7f, 0xd7, 0xab, 0xfa,
   0xdf, 0xff, 0xf6, 0xfa, 0xd7, 0xdb, 0xd7, 0xdb, 0xf6, 0xd5, 0xda, 0x17,
   0x14, 0x24, 0x04, 0x08, 0x00, 0x00, 0x00, 0x00, 0x00, 0xf4, 0x6e, 0xbb,
   0xdd, 0xed, 0xd5, 0x7b, 0xff, 0xaf, 0x7d, 0x6b, 0x5f, 0xaf, 0x7f, 0x7d,
   0xbb, 0x77, 0xbf, 0xff, 0x77, 0x0d, 0x42, 0x41, 0xa9, 0x00, 0x00, 0x00,
   0x00, 0x00, 0x00, 0xb0, 0xdb, 0xee, 0x7f, 0xdf, 0xfe, 0xfe, 0xb5, 0x7e,
   0xeb, 0xbf, 0xfb, 0xff, 0xda, 0xdf, 0xfd, 0xdc, 0x75, 0xad, 0xbd, 0x1b,
   0x10, 0x2a, 0x02, 0x01, 0x00, 0x00, 0x00, 0x00, 0x00, 0xe4, 0xff, 0xdf,
   0xea, 0xb7, 0xaf, 0xad, 0xee, 0xeb, 0xbf, 0xea, 0x77, 0x55, 0xb7, 0x76,
   0xaf, 0xff, 0xef, 0x7b, 0xef, 0x17, 0x8a, 0x80, 0x54, 0x00, 0x00, 0x00,
   0x00, 0x00, 0x00, 0xb0, 0xaa, 0xfa, 0xbf, 0xfd, 0xf5, 0xf7, 0xbb, 0xbd,
   0xd5, 0x7f, 0xdd, 0xfb, 0xfd, 0xfb, 0x75, 0xab, 0xde, 0xfe, 0xb6, 0x0d,
   0x20, 0x14, 0x00, 0x00, 0x00, 0x00, 0x00, 0x00, 0x00, 0xf4, 0xff, 0x57,
   0xd5, 0x56, 0x5f, 0xdf, 0xff, 0xee, 0xfe, 0xd6, 0xf7, 0xae, 0xd7, 0xd7,
   0xfe, 0xfd, 0x7b, 0xab, 0xfb, 0x1e, 0x4a, 0x49, 0xa9, 0x00, 0x00, 0x00,
   0x00, 0x00, 0x00, 0x70, 0xad, 0xfe, 0xff, 0xfb, 0xfb, 0x75, 0xd5, 0xfb,
   0xab, 0xbd, 0xdd, 0x7f, 0x7d, 0xbd, 0xd7, 0xdf, 0xf6, 0xdf, 0xdf, 0x1b,
   0x10, 0x12, 0x02, 0x00, 0x00, 0x00, 0x00, 0x00, 0x00, 0xe8, 0xfb, 0x6d,
   0x5b, 0xef, 0xb6, 0xbe, 0x7f, 0x5f, 0x7f, 0xf7, 0xf7, 0xda, 0xaf, 0xef,
   0x7d, 0xf5, 0xdd, 0xf6, 0x6a, 0x0f, 0x85, 0x80, 0x50, 0x01, 0x00, 0x00,
   0x00, 0x00, 0x00, 0x54, 0xdf, 0xf7, 0xfe, 0xbd, 0xdf, 0xed, 0xb6, 0xeb,
   0xed, 0xbd, 0x5e, 0xef, 0xfa, 0x75, 0xdf, 0x5f, 0x6f, 0xbb, 0xff, 0x1b,
   0x50, 0x2a, 0x0a, 0x00, 0x00, 0x00, 0x00, 0x00, 0x00, 0xf0, 0x75, 0xdf,
   0xab, 0x77, 0xeb, 0x7f, 0xdb, 0xbd, 0xfb, 0xef, 0xfb, 0xfb, 0x5f, 0xbf,
   0x6b, 0xfb, 0xfb, 0xff, 0x56, 0x0d, 0x02, 0x80, 0xa4, 0x00, 0x00, 0x00,
   0x00, 0x00, 0x00, 0xb4, 0xdf, 0xb5, 0xfd, 0xde, 0x7e, 0xd5, 0x7f, 0x6f,
   0x5f, 0x5d, 0xad, 0x5e, 0xeb, 0xf5, 0xfe, 0x56, 0x5f, 0xd5, 0xfb, 0x1f,
   0x54, 0x55, 0x01, 0x00, 0x00, 0x00, 0x00, 0x00, 0x00, 0x60, 0xf5, 0x7e,
   0x5f, 0xf7, 0xb7, 0xff, 0xed, 0xfa, 0xeb, 0xf7, 0xff, 0xf7, 0x7e, 0xdf,
   0xad, 0xfd, 0xea, 0xbf, 0xbe, 0x1a, 0x09, 0x00, 0x52, 0x01, 0x00, 0x00,
   0x00, 0x00, 0x00, 0xf4, 0x5f, 0xeb, 0xed, 0x5b, 0xfd, 0xaa, 0xbe, 0xaf,
   0xfd, 0x5e, 0x6b, 0xad, 0xd7, 0x7b, 0xf7, 0xdf, 0x7f, 0xeb, 0xd7, 0x17,
   0xa4, 0x2a, 0x88, 0x00, 0x00, 0x00, 0x00, 0x00, 0x00, 0xb8, 0xee, 0xdf,
   0xb7, 0xfd, 0xd7, 0xff, 0xeb, 0x7d, 0xaf, 0xfb, 0xdd, 0xf7, 0x7a, 0xaf,
   0xbf, 0x76, 0xad, 0x7d, 0xfd, 0x1e, 0x00, 0x40, 0x25, 0x48, 0x55, 0x29,
   0xa5, 0x5a, 0x25, 0xf1, 0xbd, 0x75, 0xfd, 0xd7, 0x7e, 0x55, 0xbf, 0xd7,
   0xfb, 0xb6, 0xbf, 0xfd, 0xbf, 0xfd, 0xea, 0xef, 0xff, 0xd7, 0xd7, 0x0d,
   0x49, 0x15, 0x88, 0x22, 0x01, 0x82, 0x10, 0x00, 0x88, 0xb2, 0x7b, 0xdf,
   0x6f, 0xbd, 0xed, 0xff, 0x6d, 0xfd, 0xb6, 0xef, 0x6a, 0x5f, 0x6d, 0xd7,
   0x7f, 0x5b, 0x55, 0x7d, 0x7d, 0x1f, 0x24, 0x40, 0x21, 0x10, 0x00, 0x20,
   0x4a, 0x55, 0x45, 0x60, 0xdf, 0xfd, 0xb6, 0xf7, 0xb7, 0xde, 0xf6, 0x6f,
   0xdf, 0x7d, 0xff, 0xeb, 0xf7, 0x7d, 0xab, 0xfd, 0xfb, 0xdf, 0xef, 0x15,
   0x92, 0x2a, 0x94, 0x02, 0x00, 0x00, 0x01, 0x00, 0x10, 0xf6, 0xed, 0x57,
   0xdf, 0xbd, 0xfe, 0xf5, 0x5f, 0xb5, 0x75, 0xdb, 0xeb, 0x7e, 0xbb, 0xf7,
   0xfe, 0xd7, 0xdf, 0x76, 0xb5, 0x1f, 0x20, 0x00, 0x01, 0x00, 0x00, 0x00,
   0xa8, 0x52, 0xa1, 0x68, 0xbf, 0xfd, 0x75, 0xf7, 0x55, 0x6f, 0xfd, 0xff,
   0xff, 0x77, 0xbf, 0xeb, 0xfe, 0xdd, 0x57, 0x7f, 0xb6, 0xdb, 0xff, 0x1a,
   0x84, 0xaa, 0x24, 0x00, 0x00, 0x00, 0x00, 0x14, 0x0c, 0xf1, 0x6b, 0x5b,
   0xff, 0xbf, 0xff, 0xdb, 0x57, 0xab, 0x56, 0xed, 0xed, 0xde, 0xab, 0x76,
   0xfd, 0xda, 0xfd, 0xfe, 0xae, 0x0f, 0x52, 0x00, 0x08, 0x00, 0x00, 0x00,
   0x40, 0x41, 0x51, 0xb0, 0xfd, 0xef, 0x5b, 0xd5, 0xdb, 0x7e, 0xfd, 0xff,
   0xfd, 0x7f, 0xb7, 0x7b, 0xff, 0xbf, 0xbf, 0x6f, 0xaf, 0x6b, 0xfb, 0x1d,
   0x00, 0x55, 0x01, 0x00, 0x00, 0x00, 0x00, 0x84, 0x00, 0x75, 0xd7, 0x76,
   0xed, 0x7b, 0xed, 0xab, 0xeb, 0x76, 0xb7, 0xb6, 0xfb, 0xad, 0xad, 0xda,
   0xd5, 0xfe, 0xf7, 0xbd, 0x6f, 0x1b, 0x96, 0x00, 0x01, 0x00, 0x00, 0x00,
   0x00, 0x12, 0x25, 0xd2, 0xbd, 0xdb, 0xff, 0xde, 0xbf, 0xfe, 0x5e, 0xdf,
   0xdb, 0xef, 0x5e, 0xff, 0xff, 0xf7, 0xff, 0xeb, 0xda, 0xf7, 0xdd, 0x0e,
   0x20, 0x54, 0x00, 0x00, 0x00, 0x00, 0x00, 0x50, 0x88, 0xf4, 0xee, 0xbe,
   0xb5, 0xf7, 0xda, 0xbb, 0xf7, 0xf5, 0xf6, 0xda, 0xf7, 0x6b, 0x6b, 0x5f,
   0xb5, 0xbd, 0xff, 0x5e, 0xb7, 0x17, 0x89, 0x22, 0x00, 0x00, 0x00, 0x00,
   0x00, 0x04, 0x52, 0xb0, 0xfb, 0xf7, 0x5e, 0x7b, 0xff, 0xee, 0x7d, 0xbf,
   0xbf, 0x7f, 0xbb, 0xfe, 0xbd, 0xf5, 0xdf, 0xef, 0x5a, 0xfb, 0xfd, 0x1d,
   0x24, 0x08, 0x00, 0x00, 0x00, 0x00, 0x00, 0x50, 0x09, 0xf1, 0xad, 0x7a,
   0xf7, 0xaf, 0xd5, 0xbb, 0xd6, 0xd5, 0xdd, 0xd6, 0xdd, 0xab, 0xd6, 0x5f,
   0x75, 0xbd, 0xef, 0xaf, 0x6f, 0x17, 0x80, 0x42, 0x00, 0x00, 0x00, 0x00,
   0x00, 0x80, 0x40, 0xaa, 0xff, 0xdf, 0xbf, 0xfa, 0xbf, 0xee, 0x7f, 0x7f,
   0xf7, 0x7d, 0xff, 0xfd, 0x7f, 0xf5, 0xdf, 0xeb, 0x76, 0x7d, 0xdd, 0x0b,
   0x2a, 0x14, 0x00, 0x00, 0x00, 0x00, 0x00, 0x20, 0x94, 0xf0, 0xb6, 0xee,
   0xea, 0xaf, 0xee, 0xff, 0xd6, 0xda, 0x6f, 0xdf, 0x55, 0xb7, 0xd5, 0xdf,
   0xba, 0xbe, 0xff, 0xeb, 0xf7, 0x1e, 0x10, 0x01, 0x00, 0x00, 0x00, 0x00,
   0x00, 0x40, 0x02, 0x52, 0xeb, 0x7b, 0x7f, 0xfd, 0xf7, 0xaa, 0xff, 0xf7,
   0xba, 0xf3, 0xfe, 0x7d, 0x7f, 0x7b, 0xef, 0xdb, 0xaa, 0xbe, 0x6d, 0x17,
   0x4a, 0x14, 0x00, 0x00, 0x00, 0x00, 0x00, 0x00, 0x29, 0xf9, 0xbf, 0xed,
   0xad, 0xb7, 0xba, 0xff, 0xaa, 0x5b, 0xff, 0xde, 0xb7, 0xd7, 0xef, 0xad,
   0x7b, 0xef, 0xff, 0xeb, 0xb7, 0x1d, 0x80, 0x02, 0x00, 0x00, 0x00, 0x00,
   0x00, 0x80, 0x40, 0x70, 0xdd, 0xb7, 0xf7, 0xfd, 0x6f, 0xad, 0x7f, 0xff,
   0xd6, 0xbb, 0x6d, 0xbf, 0xb9, 0xf7, 0xee, 0x7d, 0x6d, 0x7f, 0xfd, 0x1b,
   0x25, 0x00, 0x00, 0x00, 0xaa, 0x02, 0x00, 0x00, 0x2a, 0xd4, 0xf7, 0x7e,
   0x7d, 0xaf, 0xfd, 0xfb, 0xdb, 0xad, 0x7b, 0x77, 0xdf, 0x6a, 0xef, 0xfe,
   0x7b, 0xdb, 0xdb, 0xda, 0xbf, 0x0e, 0x90, 0x0a, 0x00, 0x20, 0x01, 0x54,
   0x00, 0x80, 0x80, 0xb2, 0x5d, 0xdb, 0xdf, 0xf5, 0xd6, 0x5e, 0xfd, 0xfe,
   0xde, 0xdd, 0xfb, 0xff, 0x77, 0x5b, 0xaf, 0xef, 0xfe, 0xb7, 0xea, 0x1b,
   0x0a, 0x00, 0x00, 0x88, 0xa4, 0x00, 0x01, 0x40, 0x2a, 0xf0, 0xee, 0xef,
   0x6a, 0xdf, 0x7f, 0xeb, 0xd7, 0xeb, 0x77, 0xef, 0xee, 0xba, 0xbd, 0xef,
   0xfd, 0x7d, 0xb7, 0xfe, 0xdd, 0x1d, 0xa0, 0x04, 0x00, 0x52, 0x08, 0x55,
   0x00, 0x00, 0x40, 0xd5, 0x7f, 0xbd, 0xff, 0xbb, 0xd5, 0x7f, 0x6f, 0xdf,
   0xee, 0x7d, 0xbb, 0x77, 0xef, 0x7a, 0x57, 0xdb, 0xed, 0x6b, 0x00, 0x00,
   0x0a, 0x01, 0x00, 0x81, 0x52, 0x00, 0x02, 0x00, 0x15, 0xb2, 0xea, 0xeb,
   0xd5, 0x76, 0xff, 0xd6, 0xfa, 0xba, 0xbb, 0xdb, 0xef, 0xed, 0xfa, 0xdf,
   0xff, 0xb7, 0x7f, 0xdf, 0x00, 0x00, 0x41, 0x04, 0x00, 0x2c, 0x00, 0xaa,
   0x00, 0x80, 0x80, 0xf0, 0xbf, 0x7e, 0xbf, 0xef, 0xad, 0xfb, 0xdf, 0x6f,
   0xed, 0xfe, 0xb6, 0xbe, 0x5f, 0x75, 0xb5, 0xfe, 0xd6, 0x76, 0x00, 0x00,
   0x94, 0x02, 0x80, 0x00, 0xa5, 0x00, 0x05, 0x00, 0x2a, 0x7a, 0xed, 0xeb,
   0xed, 0xba, 0xf7, 0x5d, 0x7b, 0xfb, 0xbf, 0xab, 0xff, 0xd7, 0xf5, 0xdf,
   0xdf, 0xed, 0xfb, 0xff, 0x54, 0x15, 0x40, 0x00, 0x00, 0x29, 0x08, 0x55,
   0x00, 0x80, 0x10, 0xa0, 0xbb, 0x5e, 0xff, 0x7f, 0x5d, 0xef, 0xd6, 0x6e,
   0x7b, 0x7f, 0xd9, 0xfe, 0xaf, 0xfd, 0xfa, 0xbb, 0x5e, 0xad, 0x20, 0x00,
   0x2a, 0x0a, 0x00, 0x82, 0x52, 0x00, 0x02, 0x00, 0x85, 0xf5, 0xef, 0xfd,
   0xaa, 0xd6, 0xf7, 0xfb, 0xfd, 0xff, 0xed, 0xda, 0xf7, 0xb5, 0x7a, 0xb7,
   0x57, 0xf7, 0xf7, 0x7b, 0x88, 0x0a, 0x01, 0x01, 0x00, 0x50, 0x08, 0x55,
   0x01, 0x00, 0x48, 0x70, 0xbd, 0xef, 0xff, 0xbb, 0x7d, 0x5d, 0xaf, 0xb5,
   0xb7, 0xef, 0x5f, 0xdf, 0xef, 0xdd, 0xfd, 0x5f, 0x7d, 0xef, 0x04, 0x00,
   0x54, 0x00, 0x00, 0x0a, 0xa1, 0x80, 0x00, 0x80, 0x24, 0xb2, 0xf7, 0xb6,
   0x5a, 0xef, 0xd7, 0xef, 0x7b, 0xef, 0xde, 0x7d, 0xf5, 0xf5, 0xba, 0x6b,
   0xaf, 0xfa, 0xcb, 0x5d, 0x50, 0x09, 0x80, 0x0a, 0x00, 0x90, 0x0a, 0x2a,
   0x00, 0x00, 0x91, 0xf4, 0xed, 0xfb, 0xf7, 0x7a, 0x7d, 0xbb, 0xde, 0xbd,
   0x7d, 0xd7, 0xbf, 0xbf, 0xff, 0xfe, 0xf5, 0xd7, 0x7e, 0xfb, 0x08, 0x02,
   0x2a, 0x00, 0x00, 0x00, 0xa0, 0x00, 0x00, 0x40, 0x24, 0x68, 0xbf, 0x5e,
   0xbd, 0xdf, 0xdb, 0xf7, 0xb7, 0xd7, 0xeb, 0x7d, 0x6d, 0xed, 0xad, 0x5d,
   0xff, 0xbe, 0xdf, 0x6f, 0xa0, 0x08, 0x00, 0x05, 0x00, 0x00, 0x00, 0x00,
   0x00, 0x00, 0x02, 0xd1, 0xeb, 0xef, 0xef, 0xf6, 0xee, 0xdd, 0xfd, 0xfa,
   0xbe, 0xef, 0xfb, 0xbb, 0xf6, 0xef, 0x5b, 0xeb, 0x75, 0xb5, 0x04, 0x04,
   0x55, 0x12, 0x00, 0x00, 0x00, 0x00, 0x00, 0x40, 0x49, 0x72, 0xdf, 0x7a,
   0xdb, 0xbb, 0x3f, 0x6f, 0xb7, 0xbf, 0xf7, 0xba, 0xaf, 0xef, 0x5f, 0x7b,
   0xed, 0x7f, 0xff, 0xff, 0xa8, 0x02, 0x80, 0x00, 0x00, 0x00, 0x00, 0x00,
   0x00, 0x00, 0x80, 0xf4, 0xba, 0xdf, 0xfe, 0x6e, 0xeb, 0xfd, 0xee, 0xe6,
   0xad, 0x6f, 0x7d, 0x7d, 0xed, 0xdd, 0x7f, 0xad, 0x55, 0x5d, 0x00, 0x09,
   0x2a, 0x14, 0x00, 0x00, 0x00, 0x00, 0x00, 0xa0, 0x52, 0xa0, 0xef, 0xf6,
   0xab, 0xfb, 0x7f, 0xb7, 0xbb, 0x5f, 0xff, 0xda, 0xee, 0xd7, 0x7b, 0x77,
   0xdb, 0x7b, 0xff, 0xeb, 0x50, 0x04, 0x80, 0x02, 0x00, 0x00, 0x00, 0x00,
   0x00, 0x50, 0x08, 0xfa, 0xbb, 0x5b, 0xff, 0xbe, 0xda, 0xdb, 0xed, 0xfb,
   0xd5, 0xff, 0xbb, 0x7e, 0xff, 0xdd, 0x6e, 0xdf, 0x6d, 0xbf, 0x88, 0x08,
   0x2a, 0x54, 0x00, 0x00, 0x00, 0x00, 0x00, 0x00, 0x51, 0xb1, 0xde, 0xed,
   0xb5, 0xeb, 0x77, 0xff, 0xbe, 0x6e, 0x7f, 0xed, 0xee, 0xfb, 0x55, 0xef,
   0xfb, 0xf5, 0xbb, 0xed, 0x20, 0x04, 0x84, 0x00, 0x00, 0x00, 0x00, 0x00,
   0x00, 0x54, 0x06, 0xf4, 0x75, 0xbf, 0xef, 0x5f, 0xed, 0xb5, 0xf7, 0xdb,
   0xdd, 0xdf, 0xbb, 0xd6, 0xfe, 0x7b, 0xaf, 0xbf, 0xf6, 0xbf, 0x44, 0x01,
   0x21, 0x95, 0x00, 0x00, 0x00, 0x00, 0x00, 0x00, 0x48, 0xa1, 0xff, 0xeb,
   0x7a, 0xf5, 0x7f, 0xef, 0x5d, 0x7d, 0xb7, 0xb6, 0xee, 0xbf, 0x57, 0xbd,
   0x7d, 0xed, 0xdf, 0x75, 0x10, 0x08, 0x94, 0x40, 0x00, 0x00, 0x00, 0x00,
   0x00, 0x2a, 0x21, 0xf4, 0xda, 0xbe, 0xbf, 0xbf, 0xb6, 0xfd, 0xf6, 0xef,
   0xfe, 0xfb, 0x7f, 0xdb, 0xfd, 0xef, 0xee, 0xbb, 0x6a, 0xaa, 0x88, 0x04,
   0x00, 0x2a, 0x01, 0x00, 0x00, 0x00, 0x00, 0x81, 0x84, 0x72, 0x6f, 0xfb,
   0xea, 0xee, 0xdb, 0x5b, 0x5f, 0xfd, 0xdb, 0xae, 0xb5, 0x6d, 0xb7, 0xbb,
   0xbb, 0x0f, 0x00, 0x00, 0x50, 0x02, 0xaa, 0x00, 0x02, 0x00, 0x00, 0x00,
   0x40, 0x24, 0x10, 0xd1, 0xbd, 0xf7, 0xdf, 0xb5, 0xfe, 0xb6, 0xfb, 0x5b,
   0xf7, 0xfb, 0xee, 0xff, 0xee, 0xee, 0xf7, 0x1a, 0x00, 0x00, 0x84, 0x08,
   0x00, 0x92, 0x14, 0x00, 0x00, 0x00, 0x00, 0x91, 0x4a, 0xb4, 0xf7, 0xae,
   0xb6, 0xff, 0xab, 0x7f, 0xaf, 0xef, 0xad, 0xae, 0x7b, 0xd5, 0xdd, 0x7b,
   0xad, 0x17, 0x82, 0x48, 0x10, 0x02, 0x55, 0x49, 0x42, 0x00, 0x00, 0x00,
   0x50, 0x44, 0x20, 0xf1, 0xde, 0xfb, 0xff, 0xda, 0xfe, 0xeb, 0xf5, 0xba,
   0xfe, 0xfb, 0xdf, 0xbf, 0xf7, 0xde, 0xff, 0x1d, 0x28, 0x26, 0x45, 0x10,
   0x00, 0x24, 0x08, 0x01, 0x00, 0x00, 0x0a, 0x11, 0x05, 0xf4, 0x6b, 0xaf,
   0xda, 0x6f, 0x57, 0xfd, 0xbe, 0xef, 0xb7, 0x6f, 0xed, 0xee, 0xbe, 0xeb,
   0xb6, 0x0e, 0x45, 0x80, 0x10, 0x0b, 0xaa, 0x80, 0x52, 0x12, 0x00, 0x90,
   0x24, 0x22, 0x48, 0x51, 0xff, 0xfb, 0xb7, 0xdd, 0xff, 0xaf, 0xef, 0xf6,
   0xee, 0xfa, 0xbb, 0xbd, 0x6b, 0xbf, 0xed, 0x1b, 0x10, 0x29, 0x4a, 0x00,
   0x01, 0x2a, 0x21, 0xa4, 0x24, 0x05, 0x89, 0x88, 0x22, 0xf2, 0xba, 0xb6,
   0x7d, 0xf7, 0x6a, 0x7b, 0xbb, 0xbd, 0x7b, 0xaf, 0xee, 0xeb, 0xfe, 0xea,
   0x7b, 0x97, 0x82, 0x80, 0x20, 0x05, 0xa8, 0x10, 0x88, 0x00, 0x92, 0x50,
   0x20, 0x25, 0x90, 0xb0, 0xdd, 0xef, 0xde, 0xbd, 0xbf, 0xdd, 0xf5, 0xdf,
   0xbd, 0xfb, 0x7b, 0xbf, 0xb7, 0x7f, 0xdf, 0x1f, 0x51, 0x2a, 0x45, 0x10,
   0x04, 0x42, 0x11, 0xaa, 0x48, 0x04, 0x09, 0x80, 0x46, 0xf4, 0xf7, 0x7a,
   0xeb, 0xf7, 0xed, 0xef, 0xdf, 0xf6, 0xd6, 0xae, 0xee, 0xde, 0xfa, 0xdd,
   0x7d, 0x15, 0x04, 0x01, 0x10, 0x09, 0xa9, 0x14, 0xa2, 0x00, 0x02, 0xa9,
   0xa2, 0x2a, 0x11, 0xb1, 0xdd, 0xdf, 0x7f, 0x5b, 0x77, 0xbd, 0xbd, 0xdb,
   0xff, 0xfb, 0xbb, 0xf5, 0xaf, 0xbb, 0xeb, 0x8f, 0x2a, 0x52, 0x21, 0x04,
   0x40, 0x80, 0x0a, 0xaa, 0x50, 0x02, 0x14, 0x40, 0x40, 0x6a, 0xbf, 0xf5,
   0xd6, 0xf6, 0xdd, 0xf7, 0xee, 0xbe, 0xaa, 0xde, 0xee, 0xbf, 0xfd, 0xee,
   0x5e, 0x1d, 0x80, 0x04, 0x4a, 0x01, 0x15, 0x2a, 0x40, 0x01, 0x0a, 0x50,
   0x40, 0x15, 0x2d, 0xf0, 0x67, 0xbf, 0xfb, 0x6f, 0xff, 0xba, 0xf7, 0xf7,
   0xff, 0x6f, 0xbb, 0xea, 0xaf, 0xbb, 0xfb, 0x1f, 0x49, 0xa8, 0x00, 0x08,
   0x40, 0x41, 0x2a, 0x54, 0xa1, 0x84, 0x0a, 0x20, 0x80, 0xb2, 0xfd, 0xed,
   0x5d, 0xbb, 0x55, 0xef, 0x5a, 0x5d, 0xab, 0xba, 0xdd, 0xbd, 0xfa, 0x6e,
   0x6d, 0x15, 0x24, 0x05, 0xaa, 0x02};
