#define ab2_bw~2_width 16
#define ab2_bw~2_height 16
static char ab2_bw~2_bits[] = {
   0xc0, 0x07, 0x20, 0x08, 0x10, 0x11, 0xc8, 0x26, 0x48, 0x24, 0x88, 0x22,
   0x1c, 0x11, 0xbe, 0x1b, 0x7e, 0x3d, 0xfe, 0x7f, 0x7c, 0x3c, 0xfa, 0x2f,
   0xf4, 0x63, 0xe8, 0x78, 0xd0, 0x1e, 0xa0, 0x07};
