#define SDtauaif.t.bm_width 16
#define SDtauaif.t.bm_height 16
#define SDtauaif.t.bm_x_hot 0
#define SDtauaif.t.bm_y_hot 0
static unsigned char SDtauaif.t.bm_bits[] = {
   0x55, 0x05, 0x00, 0x08, 0x01, 0x08, 0x10, 0x08, 0x31, 0x08, 0x70, 0x08,
   0x51, 0x0b, 0x00, 0x00, 0xf1, 0xff, 0x70, 0x8b, 0x31, 0xea, 0xb0, 0xca,
   0xb1, 0xea, 0xf0, 0xff, 0x01, 0x08, 0xfe, 0x0f};
