#define SDtqktim.t_m.bm_width 16
#define SDtqktim.t_m.bm_height 16
#define SDtqktim.t_m.bm_x_hot 0
#define SDtqktim.t_m.bm_y_hot 0
static unsigned char SDtqktim.t_m.bm_bits[] = {
   0xff, 0x03, 0xff, 0x03, 0xff, 0x03, 0xff, 0x03, 0xff, 0x03, 0xff, 0x03,
   0xff, 0x03, 0xff, 0x03, 0xff, 0xff, 0xff, 0xff, 0xff, 0xff, 0xff, 0xff,
   0xff, 0xff, 0xff, 0xff, 0xff, 0xff, 0xff, 0x03};
