#define degrees_xbm_width 16
#define degrees_xbm_height 16
static unsigned char degrees_xbm_bits[] = {
   0x0e, 0x00, 0x11, 0x00, 0x11, 0x00, 0x11, 0x00, 0x0e, 0x00, 0x00, 0x00,
   0x00, 0x00, 0x00, 0x00, 0x00, 0x00, 0x00, 0x00, 0x00, 0x00, 0x00, 0x00,
   0x00, 0x00, 0x00, 0x00, 0x00, 0x00, 0x00, 0x00};
