#define pan_cursor_xbm_width 16
#define pan_cursor_xbm_height 16
static unsigned char pan_cursor_xbm_bits[] = {
   0x98, 0x01, 0x32, 0x03, 0x66, 0x06, 0xcc, 0x0c, 0x99, 0x19, 0x33, 0x33,
   0x66, 0x66, 0xcc, 0x40, 0x98, 0xc0, 0x30, 0x80, 0x60, 0x80, 0x40, 0x00,
   0x38, 0x00, 0x60, 0x00, 0xc0, 0x00, 0x80, 0x0f};
