#define pan_cursor_mask_xbm_width 16
#define pan_cursor_mask_xbm_height 16
static unsigned char pan_cursor_mask_xbm_bits[] = {
   0x98, 0x01, 0xfe, 0x03, 0xfe, 0x07, 0xfe, 0x0f, 0xff, 0x1f, 0xff, 0x3f,
   0xfe, 0x7f, 0xfc, 0x7f, 0xf8, 0xff, 0xf0, 0xff, 0xe0, 0xff, 0xc0, 0xff,
   0xf8, 0xff, 0xe0, 0xff, 0xc0, 0xff, 0x80, 0xff};
