#define ab_default_item_width 32
#define ab_default_item_height 32
static unsigned char ab_default_item_bits[] = {
   0x00, 0x00, 0x00, 0x00, 0x00, 0x00, 0x00, 0x00, 0x00, 0x30, 0x3e, 0x00,
   0x00, 0x30, 0x66, 0x00, 0x00, 0x68, 0x66, 0x00, 0x00, 0x68, 0x26, 0x00,
   0x00, 0x68, 0x1e, 0x00, 0x00, 0xfc, 0x26, 0x00, 0x00, 0xc4, 0x66, 0x00,
   0x00, 0xc4, 0x66, 0x00, 0x00, 0xc4, 0x3e, 0x00, 0x00, 0x00, 0x00, 0x00,
   0x00, 0xe0, 0x03, 0x00, 0x00, 0x18, 0x0c, 0x00, 0x00, 0x06, 0x30, 0x00,
   0x00, 0x31, 0x46, 0x00, 0x00, 0x01, 0x40, 0x00, 0x80, 0x30, 0x86, 0x00,
   0x80, 0x30, 0x86, 0x00, 0x40, 0x00, 0x00, 0x01, 0x40, 0x80, 0x00, 0x01,
   0x40, 0x80, 0x00, 0x01, 0x40, 0x80, 0x00, 0x01, 0x40, 0x80, 0x00, 0x01,
   0x80, 0x18, 0x86, 0x00, 0x80, 0x30, 0x83, 0x00, 0x00, 0xe1, 0x41, 0x00,
   0x00, 0x01, 0x40, 0x00, 0x00, 0x06, 0x30, 0x00, 0x00, 0x18, 0x0c, 0x00,
   0x00, 0xe0, 0x03, 0x00, 0x00, 0x00, 0x00, 0x00};
