#define command.xbm_width 48
#define command.xbm_height 48
static char command.xbm_bits[] = {
   0x00, 0x00, 0x00, 0x00, 0x00, 0x00, 0x00, 0x00, 0x00, 0x00, 0x00, 0x00,
   0x00, 0x00, 0x00, 0x00, 0x00, 0x00, 0x00, 0x00, 0x00, 0x00, 0x00, 0x00,
   0x00, 0x00, 0x00, 0x00, 0x00, 0x00, 0x00, 0x00, 0x00, 0x00, 0x00, 0x00,
   0xe0, 0xff, 0xff, 0xff, 0xff, 0x07, 0x20, 0x00, 0x00, 0x00, 0x00, 0x04,
   0x20, 0x00, 0x00, 0x00, 0x00, 0x04, 0x20, 0xfe, 0xff, 0xff, 0x7f, 0x04,
   0x20, 0x02, 0x00, 0x00, 0x40, 0x04, 0x20, 0x02, 0x00, 0x00, 0x40, 0x04,
   0x20, 0x02, 0x00, 0x00, 0x40, 0x04, 0x20, 0x02, 0x00, 0x00, 0x40, 0x04,
   0x20, 0x02, 0x00, 0x00, 0x40, 0x04, 0x20, 0x02, 0x00, 0x00, 0x40, 0x04,
   0x20, 0x02, 0x00, 0x00, 0x40, 0x04, 0x20, 0x02, 0x00, 0x00, 0x40, 0x04,
   0x20, 0x02, 0x00, 0x00, 0x40, 0x04, 0x20, 0x02, 0x00, 0x00, 0x40, 0x04,
   0x20, 0x02, 0x00, 0x00, 0x40, 0x04, 0x20, 0x02, 0x00, 0x00, 0x40, 0x04,
   0x20, 0xfe, 0xff, 0xff, 0x7f, 0x04, 0x20, 0x00, 0x00, 0x00, 0x00, 0x04,
   0x20, 0x00, 0x00, 0x00, 0x00, 0x04, 0x20, 0x00, 0x00, 0x00, 0x00, 0x04,
   0x20, 0x07, 0x00, 0x00, 0x00, 0x04, 0x20, 0x71, 0x55, 0x57, 0x13, 0x04,
   0x20, 0x51, 0x77, 0x55, 0x05, 0x04, 0x20, 0x51, 0x55, 0x77, 0x15, 0x04,
   0x20, 0x77, 0x55, 0x55, 0x03, 0x04, 0x20, 0x00, 0x00, 0x00, 0x00, 0x04,
   0x20, 0x00, 0x00, 0x00, 0x00, 0x04, 0x20, 0xff, 0xff, 0xff, 0xff, 0x05,
   0x20, 0x01, 0x00, 0x00, 0x00, 0x05, 0x20, 0x01, 0x00, 0x00, 0x00, 0x05,
   0x20, 0x01, 0x00, 0x00, 0x00, 0x05, 0x20, 0x01, 0x00, 0x00, 0x00, 0x05,
   0x20, 0xff, 0xff, 0xff, 0xff, 0x05, 0x20, 0x00, 0x00, 0x00, 0x00, 0x04,
   0x20, 0x00, 0x00, 0x00, 0x00, 0x04, 0xe0, 0xff, 0xff, 0xff, 0xff, 0x07,
   0x00, 0x00, 0x00, 0x00, 0x00, 0x00, 0x00, 0x00, 0x00, 0x00, 0x00, 0x00,
   0x00, 0x00, 0x00, 0x00, 0x00, 0x00, 0x00, 0x00, 0x00, 0x00, 0x00, 0x00,
   0x00, 0x00, 0x00, 0x00, 0x00, 0x00, 0x00, 0x00, 0x00, 0x00, 0x00, 0x00};
