#define container.xbm_width 48
#define container.xbm_height 48
static char container.xbm_bits[] = {
   0x00, 0x00, 0x00, 0x00, 0x00, 0x00, 0x00, 0x00, 0x00, 0x00, 0x00, 0x00,
   0x00, 0x00, 0x00, 0x00, 0x00, 0x00, 0x00, 0x00, 0x00, 0x00, 0x00, 0x00,
   0x00, 0x00, 0x00, 0x00, 0x00, 0x00, 0x00, 0x00, 0x00, 0x00, 0x00, 0x00,
   0x00, 0x00, 0x00, 0x00, 0x00, 0x00, 0x00, 0x00, 0x00, 0x00, 0x00, 0x00,
   0x00, 0x00, 0x00, 0x00, 0x00, 0x00, 0x00, 0x00, 0x00, 0x00, 0x00, 0x00,
   0x00, 0x20, 0x0c, 0xc4, 0x01, 0x00, 0x00, 0x50, 0x12, 0x4a, 0x01, 0x00,
   0x00, 0xd8, 0x1e, 0xdb, 0x03, 0x00, 0x00, 0x70, 0x12, 0x4e, 0x02, 0x00,
   0x00, 0x20, 0x12, 0xc4, 0x01, 0x00, 0x00, 0x00, 0x00, 0x00, 0x00, 0x00,
   0x00, 0x00, 0x00, 0x00, 0x00, 0x00, 0x00, 0x00, 0x00, 0x00, 0x00, 0x00,
   0x00, 0x00, 0x00, 0x00, 0x00, 0x00, 0x00, 0x00, 0x00, 0x00, 0x00, 0x00,
   0x00, 0x00, 0x00, 0xfc, 0xff, 0x03, 0x00, 0x00, 0x00, 0x04, 0x00, 0x02,
   0xc0, 0xed, 0xb3, 0x04, 0x00, 0x02, 0x40, 0xa9, 0x3a, 0x04, 0x00, 0x02,
   0x40, 0xad, 0x0a, 0x04, 0x00, 0x02, 0x40, 0xbd, 0xb2, 0x04, 0x00, 0x02,
   0x00, 0x00, 0x00, 0xfc, 0xff, 0x03, 0x00, 0x00, 0x00, 0x00, 0x00, 0x00,
   0x00, 0x00, 0x00, 0x00, 0x00, 0x00, 0x00, 0x00, 0x00, 0x00, 0x00, 0x00,
   0x00, 0x00, 0x00, 0x00, 0x04, 0x00, 0x00, 0x00, 0x00, 0xfc, 0x0f, 0x00,
   0x00, 0x00, 0x00, 0x04, 0x03, 0x00, 0x00, 0x00, 0xba, 0x94, 0x01, 0x00,
   0x00, 0x00, 0x2d, 0xf4, 0x01, 0x00, 0x00, 0x00, 0x2d, 0x64, 0x01, 0x00,
   0x00, 0x00, 0xaa, 0x24, 0x01, 0x00, 0x00, 0x00, 0x00, 0xfc, 0x01, 0x00,
   0x00, 0x00, 0x00, 0x00, 0x00, 0x00, 0x00, 0x00, 0x00, 0x00, 0x00, 0x00,
   0x00, 0x00, 0x00, 0x00, 0x00, 0x00, 0x00, 0x00, 0x00, 0x00, 0x00, 0x00,
   0x00, 0x00, 0x00, 0x00, 0x00, 0x00, 0x00, 0x00, 0x00, 0x00, 0x00, 0x00,
   0x00, 0x00, 0x00, 0x00, 0x00, 0x00, 0x00, 0x00, 0x00, 0x00, 0x00, 0x00,
   0x00, 0x00, 0x00, 0x00, 0x00, 0x00, 0x00, 0x00, 0x00, 0x00, 0x00, 0x00};
