#define distribute_right_width 32
#define distribute_right_height 32
static unsigned char distribute_right_bits[] = {
 0x00,0x00,0x00,0x10,0x00,0x00,0x00,0x10,0x00,0x00,0x00,0x10,0x00,0x00,0x00,
 0x10,0x00,0x00,0x00,0x10,0x00,0x00,0x00,0x10,0x00,0x00,0x00,0x10,0x00,0x00,
 0x00,0x10,0x00,0x00,0x00,0x10,0x00,0x00,0x00,0x10,0x00,0x00,0x00,0x10,0x00,
 0x00,0x00,0x10,0xf0,0xff,0xff,0x1f,0x10,0x00,0x00,0x18,0x10,0x00,0x00,0x18,
 0x10,0x00,0x00,0x18,0x10,0x00,0x00,0x18,0x10,0x00,0x00,0x18,0x10,0x00,0x00,
 0x18,0xf0,0xff,0xff,0x1f,0x00,0x00,0x00,0x10,0x00,0x00,0x00,0x10,0x00,0x00,
 0x00,0x10,0x00,0x00,0x00,0x10,0x00,0x00,0x00,0x10,0x00,0x00,0x00,0x10,0x00,
 0x00,0x00,0x10,0x00,0x00,0x00,0x10,0x00,0x00,0x00,0x10,0x00,0x00,0x00,0x10,
 0x00,0x00,0x00,0x10,0x00,0x00,0x00,0x10};
