#define drawarea.xbm_width 48
#define drawarea.xbm_height 48
static char drawarea.xbm_bits[] = {
   0x00, 0x00, 0x00, 0x00, 0x00, 0x00, 0x00, 0x00, 0x00, 0x00, 0x00, 0x00,
   0x00, 0x00, 0x00, 0x00, 0x00, 0x00, 0x00, 0x00, 0x00, 0x00, 0x00, 0x00,
   0x00, 0x00, 0x00, 0x00, 0x00, 0x00, 0x00, 0x00, 0x00, 0x00, 0x00, 0x00,
   0x00, 0x00, 0x00, 0x00, 0x00, 0x00, 0xe0, 0xff, 0xff, 0xff, 0xff, 0x0f,
   0x20, 0x00, 0x00, 0x00, 0x80, 0x0f, 0x20, 0x00, 0x00, 0x00, 0x80, 0x0d,
   0x20, 0x00, 0x00, 0x00, 0x80, 0x08, 0x20, 0x00, 0x00, 0x08, 0x80, 0x0f,
   0x20, 0x00, 0x00, 0x14, 0x80, 0x08, 0x20, 0x00, 0x00, 0x22, 0x80, 0x08,
   0x20, 0x00, 0x00, 0x41, 0x80, 0x08, 0x20, 0x00, 0x80, 0x80, 0x80, 0x08,
   0x20, 0x00, 0x80, 0xff, 0x80, 0x08, 0x20, 0x00, 0x00, 0x00, 0x80, 0x08,
   0x20, 0xf0, 0x00, 0x00, 0x80, 0x08, 0x20, 0x1c, 0x03, 0x00, 0x80, 0x08,
   0x20, 0x06, 0x04, 0x00, 0x80, 0x08, 0x20, 0x02, 0x04, 0x00, 0x80, 0x08,
   0x20, 0x03, 0x08, 0x00, 0x80, 0x08, 0x20, 0x03, 0x08, 0xfe, 0x80, 0x08,
   0x20, 0x03, 0x08, 0xfe, 0x81, 0x08, 0x20, 0x07, 0x08, 0x06, 0x81, 0x08,
   0x20, 0x06, 0x04, 0x06, 0x81, 0x08, 0x20, 0x1e, 0x04, 0x06, 0x81, 0x08,
   0x20, 0xfc, 0x03, 0x06, 0x81, 0x0f, 0x20, 0xf0, 0x00, 0x06, 0x81, 0x0f,
   0x20, 0x00, 0x00, 0xfc, 0x81, 0x0f, 0x20, 0x00, 0x00, 0x00, 0x80, 0x0f,
   0x20, 0x00, 0x00, 0x00, 0x80, 0x08, 0x20, 0x00, 0x00, 0x00, 0x80, 0x0d,
   0xe0, 0xff, 0xff, 0xff, 0xff, 0x0f, 0xe0, 0x02, 0x00, 0x00, 0xd0, 0x08,
   0x60, 0x02, 0x00, 0x00, 0x90, 0x08, 0xe0, 0x02, 0x00, 0x00, 0xd0, 0x08,
   0xe0, 0xff, 0xff, 0xff, 0xff, 0x0f, 0x00, 0x00, 0x00, 0x00, 0x00, 0x00,
   0x00, 0x00, 0x00, 0x00, 0x00, 0x00, 0x00, 0x00, 0x00, 0x00, 0x00, 0x00,
   0x00, 0x00, 0x00, 0x00, 0x00, 0x00, 0x00, 0x00, 0x00, 0x00, 0x00, 0x00,
   0x00, 0x00, 0x00, 0x00, 0x00, 0x00, 0x00, 0x00, 0x00, 0x00, 0x00, 0x00,
   0x00, 0x00, 0x00, 0x00, 0x00, 0x00, 0x00, 0x00, 0x00, 0x00, 0x00, 0x00};
