#define menubar.xbm_width 48
#define menubar.xbm_height 48
static char menubar.xbm_bits[] = {
   0x00, 0x00, 0x00, 0x00, 0x00, 0x00, 0x00, 0x00, 0x00, 0x00, 0x00, 0x00,
   0x00, 0x00, 0x00, 0x00, 0x00, 0x00, 0x00, 0x00, 0x00, 0x00, 0x00, 0x00,
   0x00, 0x00, 0x00, 0x00, 0x00, 0x00, 0x00, 0x00, 0x00, 0x00, 0x00, 0x00,
   0x00, 0x00, 0x00, 0x00, 0x00, 0x00, 0x00, 0x00, 0x00, 0x00, 0x00, 0x00,
   0xfe, 0xff, 0xff, 0xff, 0xff, 0x7f, 0x02, 0x00, 0x00, 0x00, 0x00, 0x60,
   0xba, 0x02, 0xe0, 0xa8, 0x00, 0x60, 0x0a, 0x32, 0x20, 0xcc, 0x01, 0x60,
   0xba, 0x3a, 0xe0, 0xaa, 0x00, 0x60, 0x8a, 0x0a, 0x20, 0xaa, 0x00, 0x60,
   0x8a, 0x32, 0xe0, 0x2c, 0x01, 0x60, 0x02, 0x00, 0x00, 0x00, 0x00, 0x60,
   0xfa, 0xff, 0xe1, 0x00, 0x00, 0x60, 0x0a, 0x00, 0x01, 0x00, 0x00, 0x60,
   0x0e, 0x00, 0xff, 0xff, 0xff, 0x7f, 0x0c, 0x00, 0xff, 0xff, 0xff, 0x7f,
   0x28, 0x10, 0x01, 0x00, 0x00, 0x00, 0xa8, 0x1f, 0x03, 0x00, 0x00, 0x00,
   0xe8, 0x1f, 0x01, 0x00, 0x00, 0x00, 0x08, 0x00, 0x03, 0x00, 0x00, 0x00,
   0x08, 0x00, 0x01, 0x00, 0x00, 0x00, 0x68, 0x00, 0x03, 0x00, 0x00, 0x00,
   0xe8, 0x0f, 0x01, 0x00, 0x00, 0x00, 0xe8, 0x0f, 0x03, 0x00, 0x00, 0x00,
   0x08, 0x00, 0x01, 0x00, 0x00, 0x00, 0x08, 0x00, 0x03, 0x00, 0x00, 0x00,
   0x68, 0x00, 0x01, 0x00, 0x00, 0x00, 0xe8, 0x6f, 0x03, 0x00, 0x00, 0x00,
   0xe8, 0x6f, 0x01, 0x00, 0x00, 0x00, 0x08, 0x00, 0x03, 0x00, 0x00, 0x00,
   0x08, 0x00, 0x01, 0x00, 0x00, 0x00, 0x08, 0x00, 0x03, 0x00, 0x00, 0x00,
   0x08, 0x00, 0x01, 0x00, 0x00, 0x00, 0xf8, 0xff, 0x03, 0x00, 0x00, 0x00,
   0x50, 0x55, 0x01, 0x00, 0x00, 0x00, 0x00, 0x00, 0x00, 0x00, 0x00, 0x00,
   0x00, 0x00, 0x00, 0x00, 0x00, 0x00, 0x00, 0x00, 0x00, 0x00, 0x00, 0x00,
   0x00, 0x00, 0x00, 0x00, 0x00, 0x00, 0x00, 0x00, 0x00, 0x00, 0x00, 0x00,
   0x00, 0x00, 0x00, 0x00, 0x00, 0x00, 0x00, 0x00, 0x00, 0x00, 0x00, 0x00,
   0x00, 0x00, 0x00, 0x00, 0x00, 0x00, 0x00, 0x00, 0x00, 0x00, 0x00, 0x00};
