#define selection_box.xbm_width 48
#define selection_box.xbm_height 48
static char selection_box.xbm_bits[] = {
   0x00, 0x00, 0x00, 0x00, 0x00, 0x00, 0x00, 0x00, 0x00, 0x00, 0x00, 0x00,
   0x00, 0x00, 0x00, 0x00, 0x00, 0x00, 0x00, 0x00, 0x00, 0x00, 0x00, 0x00,
   0x00, 0x00, 0x00, 0x00, 0x00, 0x00, 0x00, 0x00, 0x00, 0x00, 0x00, 0x00,
   0xe0, 0xff, 0xff, 0xff, 0xff, 0x07, 0x20, 0x00, 0x00, 0x00, 0x00, 0x04,
   0x20, 0xff, 0xff, 0xff, 0xff, 0x04, 0x20, 0x01, 0x00, 0x00, 0x80, 0x04,
   0x20, 0x01, 0x00, 0x00, 0xa0, 0x04, 0x20, 0x01, 0x00, 0x00, 0xa0, 0x04,
   0x20, 0x01, 0x00, 0x00, 0xa0, 0x04, 0x20, 0x01, 0x00, 0x00, 0xa0, 0x04,
   0x20, 0x01, 0x00, 0x00, 0xa0, 0x04, 0x20, 0x01, 0x00, 0x00, 0xa0, 0x04,
   0x20, 0x01, 0x00, 0x00, 0xa0, 0x04, 0x20, 0x01, 0x00, 0x00, 0xa0, 0x04,
   0x20, 0x01, 0x00, 0x00, 0x80, 0x04, 0x20, 0xff, 0xff, 0xff, 0xff, 0x04,
   0x20, 0x00, 0x00, 0x00, 0x00, 0x04, 0x20, 0x00, 0x00, 0x40, 0x00, 0x04,
   0x20, 0x07, 0x01, 0x08, 0x00, 0x04, 0x20, 0x71, 0xdd, 0x5d, 0x57, 0x04,
   0x20, 0x77, 0x5d, 0x48, 0x75, 0x05, 0x20, 0x14, 0x45, 0x48, 0x55, 0x04,
   0x20, 0x77, 0xdd, 0x49, 0x57, 0x05, 0x20, 0x00, 0x00, 0x00, 0x00, 0x04,
   0x20, 0xff, 0xff, 0xff, 0xff, 0x05, 0x20, 0x01, 0x00, 0x00, 0x00, 0x05,
   0x20, 0x01, 0x00, 0x00, 0x00, 0x05, 0x20, 0x01, 0x00, 0x00, 0x00, 0x05,
   0x20, 0x01, 0x00, 0x00, 0x00, 0x05, 0x20, 0xff, 0xff, 0xff, 0xff, 0x05,
   0x20, 0x00, 0x00, 0x00, 0x00, 0x04, 0x20, 0x00, 0x00, 0x00, 0x00, 0x04,
   0x20, 0xfe, 0xf1, 0x8f, 0x7f, 0x04, 0x20, 0xfe, 0xf1, 0x8f, 0x7f, 0x04,
   0x20, 0xfe, 0xf1, 0x8f, 0x7f, 0x04, 0x20, 0x00, 0x00, 0x00, 0x00, 0x04,
   0x20, 0x00, 0x00, 0x00, 0x00, 0x04, 0xe0, 0xff, 0xff, 0xff, 0xff, 0x07,
   0x00, 0x00, 0x00, 0x00, 0x00, 0x00, 0x00, 0x00, 0x00, 0x00, 0x00, 0x00,
   0x00, 0x00, 0x00, 0x00, 0x00, 0x00, 0x00, 0x00, 0x00, 0x00, 0x00, 0x00,
   0x00, 0x00, 0x00, 0x00, 0x00, 0x00, 0x00, 0x00, 0x00, 0x00, 0x00, 0x00};
