#define term_pane.xbm_width 48
#define term_pane.xbm_height 48
static char term_pane.xbm_bits[] = {
   0x00, 0x00, 0x00, 0x00, 0x00, 0x00, 0x00, 0x00, 0x00, 0x00, 0x00, 0x00,
   0x00, 0x00, 0x00, 0x00, 0x00, 0x00, 0x00, 0x00, 0x00, 0x00, 0x00, 0x00,
   0x00, 0x00, 0x00, 0x00, 0x00, 0x00, 0x00, 0x00, 0x00, 0x00, 0x00, 0x00,
   0x00, 0x00, 0x00, 0x00, 0x00, 0x00, 0x00, 0x00, 0x00, 0x00, 0x00, 0x00,
   0x00, 0x00, 0x00, 0x00, 0x00, 0x00, 0x00, 0x00, 0x00, 0x00, 0x80, 0x0f,
   0x00, 0xff, 0xff, 0xff, 0x87, 0x0d, 0x80, 0x00, 0x00, 0x00, 0x88, 0x08,
   0x80, 0xfc, 0xff, 0xff, 0x89, 0x0f, 0x80, 0x56, 0x55, 0x55, 0x8b, 0x08,
   0x80, 0xaa, 0xaa, 0xaa, 0x8a, 0x08, 0x80, 0x56, 0x55, 0x51, 0x8b, 0x08,
   0x80, 0xaa, 0xaa, 0xa0, 0x8a, 0x08, 0x80, 0x56, 0x55, 0x51, 0x8b, 0x08,
   0x80, 0xaa, 0xaa, 0xaa, 0x8a, 0x08, 0x80, 0x56, 0x55, 0x55, 0x8b, 0x08,
   0x80, 0xaa, 0xaa, 0xaa, 0x8a, 0x08, 0x80, 0x56, 0x55, 0x55, 0x8b, 0x08,
   0x80, 0xaa, 0xaa, 0xaa, 0x8a, 0x08, 0x80, 0x56, 0x55, 0x55, 0x8b, 0x08,
   0x80, 0xaa, 0xaa, 0xaa, 0x8a, 0x08, 0x80, 0xfc, 0xff, 0xff, 0x89, 0x08,
   0x80, 0x00, 0x00, 0x00, 0x88, 0x08, 0x00, 0xff, 0xff, 0xff, 0x87, 0x08,
   0x00, 0x00, 0x00, 0x00, 0x80, 0x0f, 0x00, 0xfc, 0xff, 0xff, 0x81, 0x0f,
   0x00, 0x02, 0x00, 0x00, 0x82, 0x0f, 0x00, 0x55, 0x55, 0x55, 0x85, 0x0f,
   0x80, 0x00, 0x00, 0x00, 0x88, 0x0f, 0x40, 0xaa, 0xaa, 0xaa, 0x92, 0x08,
   0x40, 0x00, 0x00, 0x00, 0x90, 0x0d, 0xc0, 0xff, 0xff, 0xff, 0x9f, 0x0f,
   0x00, 0x00, 0x00, 0x00, 0x00, 0x00, 0x00, 0x00, 0x00, 0x00, 0x00, 0x00,
   0x00, 0x00, 0x00, 0x00, 0x00, 0x00, 0x00, 0x00, 0x00, 0x00, 0x00, 0x00,
   0x00, 0x00, 0x00, 0x00, 0x00, 0x00, 0x00, 0x00, 0x00, 0x00, 0x00, 0x00,
   0x00, 0x00, 0x00, 0x00, 0x00, 0x00, 0x00, 0x00, 0x00, 0x00, 0x00, 0x00,
   0x00, 0x00, 0x00, 0x00, 0x00, 0x00, 0x00, 0x00, 0x00, 0x00, 0x00, 0x00,
   0x00, 0x00, 0x00, 0x00, 0x00, 0x00, 0x00, 0x00, 0x00, 0x00, 0x00, 0x00};
